<svg xmlns="http://www.w3.org/2000/svg" xmlns:xlink="http://www.w3.org/1999/xlink" viewBox="0 0 768 1366"><defs><style>.cls-1,.cls-23,.cls-33{fill:none;}.cls-2{fill:#f2b999;}.cls-3,.cls-4{fill:#b33d42;}.cls-23,.cls-3,.cls-33{stroke:#000;stroke-miterlimit:10;}.cls-5{fill:#642d1b;}.cls-6{fill:#e6e6e6;}.cls-7{fill:url(#linear-gradient);}.cls-8{fill:url(#Eye_Gradient);}.cls-9{fill:url(#Eye_Gradient-2);}.cls-10,.cls-24{fill:#d08377;}.cls-10{opacity:0.9;}.cls-11,.cls-28{fill:#5e1f23;}.cls-12{fill:#998675;}.cls-13{fill:#31366b;}.cls-14{fill:#15161f;}.cls-15{fill:#f5ceb6;}.cls-16{fill:#191e51;}.cls-17{fill:#1a1a1a;}.cls-18{fill:#b3b3b3;}.cls-19{fill:#646e3c;}.cls-20{fill:#798082;}.cls-21{fill:#8b9954;}.cls-22{fill:#f2f2f2;}.cls-25{fill:#333;opacity:0.5;}.cls-26{fill:#778348;}.cls-27{fill:#9baa5e;}.cls-28{opacity:0.6;}.cls-29{opacity:0.8;}.cls-30{fill:#81f785;}.cls-31{opacity:0.7;}.cls-32{opacity:0.01;}.cls-33{stroke-linecap:round;stroke-width:2px;}</style><linearGradient id="linear-gradient" x1="365.28" y1="290.22" x2="365.28" y2="276.72" gradientUnits="userSpaceOnUse"><stop offset="0" stop-color="#565a55"/><stop offset="1" stop-color="#3a3d3a"/></linearGradient><linearGradient id="Eye_Gradient" x1="314.29" y1="290.22" x2="314.29" y2="276.73" xlink:href="#linear-gradient"/><linearGradient id="Eye_Gradient-2" x1="314.96" y1="276.92" x2="314.96" y2="276.72" xlink:href="#linear-gradient"/></defs><g id="Color"><path class="cls-1" d="M285.3,266.49a90.16,90.16,0,0,1-8.8,10"/><path class="cls-1" d="M297.37,237c-5.45,2.37-10.79,4.28-15.87,6.46"/><path class="cls-1" d="M374,269c-.38-.36-.78-.72-1.18-1.08m-.15-.14s0,0,0,0l0,0h0m-.08-.08h0"/><path class="cls-2" d="M389.5,303.5c-2.09-15.36-7-24.74-13.81-32.5h0c-.62-.06-1.28-.12-2-.17-1.19-.08-2.52-.12-4-.09-.54,0-1.1,0-1.68,0l-1.8.09-1,.07-2,.17-2.12.24-1.09.14c-2.27.3-4.75.7-7.45,1.22a10,10,0,0,1,1-4l.65-.08.27,0,.33,0,.35,0,.83-.1.51-.05.84-.1,1.87-.19,1.26-.12.66-.06.75-.06.6-.05.5,0,1-.07.57,0,1.4-.08.9-.05,1.19,0,2,0h.16c.73,0,1.43,0,2.08.05-6.74-6.09-15.56-12.92-24.83-21.91a152.66,152.66,0,0,1-19.13-21.9l-.14-.19h0q-.56-.76-1.11-1.56c-.79-1.13-1.59-2.3-2.39-3.5-9,9.59-18.36,14.73-27.38,18.63-2.91,12.33-5.36,20.45-12.07,29.45a48,48,0,0,1-1.8,19c-3.14-5-11-9.27-15-5.26-2.32,2.36-3.27,7.6-1,17.26a20.45,20.45,0,0,0,3.36,7.53,18.69,18.69,0,0,0,2.15,2.5q.45.45.93.87l.48.4c.24.2.48.39.73.57l.74.53c.24.17.48.32.72.47l.44.27c.29.18.57.34.86.5s.76.4,1.13.57l.64.31,1.21.51c.67.27,1.33.5,2,.69l.64.19.46.13.15,0,.3.08.87.21.59.13c.52,1.44,1.14,2.9,1.83,4.36l.2.42c.07.15.15.3.22.46s.29.58.45.87.26.51.4.76a2.15,2.15,0,0,0,.14.26l.47.85c.1.19.21.37.32.56.2.36.41.71.63,1.07s.28.47.43.7c.25.41.5.81.77,1.22l.8,1.21.1.14q.45.66.93,1.32.34.49.72,1l.24.33.1.13q.13.19.3.39c.09.13.19.25.29.38s.34.45.53.67q.5.63,1,1.26l.89,1.06.57.66.33.37c.18.21.37.41.55.61s.45.49.68.73.45.49.69.73.58.61.88.91l.61.61c.49.49,1,1,1.49,1.44s1,.92,1.48,1.36h0a73.84,73.84,0,0,0,8.9,6.81c8.3,5.4,17.54,8.85,26.67,8.85a44.33,44.33,0,0,0,19.86-5.1,68.72,68.72,0,0,0,15.56-11h0l.7-.67c1-.93,1.94-1.89,2.86-2.86v0l.19-.19c.43-.45.84-.89,1.24-1.35l.27-.29.68-.78c1-1.11,1.91-2.25,2.79-3.4.36-.46.72-.93,1.06-1.4.88-1.19,1.72-2.4,2.5-3.6h0C389.58,318.81,390.76,312.77,389.5,303.5Zm-75.1-13.3H314l-.5,0-.37,0a6.43,6.43,0,0,1-5.56-6.84c0-.15,0-.31,0-.46a.57.57,0,0,1,0-.13c0-.06,0-.11,0-.17a7.91,7.91,0,0,1,.19-.81,2.4,2.4,0,0,1,.12-.38.61.61,0,0,1,.05-.12,2.5,2.5,0,0,1,.15-.38,4.87,4.87,0,0,1,.28-.56,0,0,0,0,1,0,0h0a.6.6,0,0,1,.09-.15.75.75,0,0,1,.07-.12c0-.08.1-.16.15-.24l0-.07c.06-.08.11-.16.18-.24a2.2,2.2,0,0,1,.28-.34,1.21,1.21,0,0,1,.21-.24,1.25,1.25,0,0,1,.23-.23,2.81,2.81,0,0,1,.31-.29l0,0,.46-.36,0,0c.13-.09.26-.18.4-.26l0,0h0l.16-.1h0l.18-.11h0l0,0,.38-.18.44-.17a6.2,6.2,0,0,1,1.88-.35h.19a6.31,6.31,0,0,1,1.57.2,7,7,0,0,1,5.15,7.5,3.86,3.86,0,0,1-.09.49c0,.1-.05.19-.08.29s-.11.36-.17.53l0,.07-.21.47a0,0,0,0,0,0,0c-.08.16-.17.32-.26.47s-.15.23-.22.34a.21.21,0,0,0,0,.06l0,0a1.13,1.13,0,0,1-.1.13.47.47,0,0,1-.06.09l-.06.07h0a3.89,3.89,0,0,1-.38.43,5.77,5.77,0,0,1-.44.42,1.68,1.68,0,0,1-.21.18,3.75,3.75,0,0,1-.33.26h0l0,0-.08.05,0,0a2.92,2.92,0,0,1-.37.24,2.79,2.79,0,0,1-.33.19l-.14.07a2.53,2.53,0,0,1-.37.18,4.87,4.87,0,0,1-.53.21,4.11,4.11,0,0,1-.46.15,6.25,6.25,0,0,1-.72.17l-.11,0a4.1,4.1,0,0,1-.49.06Zm-9.53-22.49a28.32,28.32,0,0,1,4.35-.28,152.81,152.81,0,0,1,16.65,1.28,10,10,0,0,1,1,4c-.65-.13-1.29-.24-1.92-.35-1.48-.26-2.88-.49-4.22-.68l-1.31-.18c-1.52-.21-2.94-.37-4.28-.48-.25,0-.49,0-.74-.06l-.36,0c-.43,0-.84-.06-1.24-.08l-1.15-.06-1.09,0-.86,0h-.52c-1.24,0-2.36,0-3.39.1-7.39.48-9.61,2.57-9.89,2.86A13.86,13.86,0,0,1,304.87,267.71Zm62.68,22.21a6.39,6.39,0,0,1-1.94.3,3.39,3.39,0,0,1-.45,0h-.09a.22.22,0,0,1-.11,0,6.62,6.62,0,0,1-1.8-.41,2,2,0,0,1-.34-.14,5.75,5.75,0,0,1-1-.5,5.07,5.07,0,0,1-.54-.36,6.85,6.85,0,0,1-1.37-1.32c-.1-.12-.19-.24-.28-.37a4.54,4.54,0,0,1-.36-.6,2.31,2.31,0,0,1-.18-.35,4.89,4.89,0,0,1-.2-.48,6.16,6.16,0,0,1-.31-1.23,7,7,0,0,1,5.15-7.5,6.31,6.31,0,0,1,1.57-.2h.19a7,7,0,0,1,6.53,6.59A6.75,6.75,0,0,1,367.55,289.92Z"/><path class="cls-3" d="M306.27,358.26a68,68,0,0,0-12.06-.86l-1,0c-1.81.05-3.63.16-5.43.35l-1.2.14-.52.06-.89.13c-.92.14-1.82.29-2.71.47l-.55.11c-.53.11-1.06.23-1.58.36l-.94.24-.11,0c-.58.16-1.14.32-1.7.5-.3.1-.59.19-.88.3s-.56.2-.84.3c-.86.32-1.69.68-2.48,1.06-.26.13-.52.26-.77.4s-.5.26-.74.41-.47.27-.7.42-.48.3-.7.46l-.66.48c-.21.16-.42.32-.62.49s-.4.34-.59.52c-.38.35-.73.71-1.07,1.09h0c-.11.13-.23.26-.34.4l-.31.41q-.17.21-.3.42c-.1.14-.19.29-.28.43s-.18.3-.26.45a10.53,10.53,0,0,0-.83,1.88,4.13,4.13,0,0,0-.15.5c-1,3.41-.39,7.62,2.33,12.75-10.8,6.29-22.42,17.92-15,27.17a93.27,93.27,0,0,0-17.89,18.9c-5-63.91,35.64-76.28,36.38-124a18.69,18.69,0,0,0,2.15,2.5c.3.31.61.59.93.87l.48.4c.24.2.48.39.73.57l.74.53c.24.17.48.32.72.47l.44.27c.29.18.57.34.86.5s.76.4,1.13.57l.64.31,1.21.51c.67.27,1.33.5,2,.69l.64.19.46.13.15,0a1.67,1.67,0,0,0,.3.08l.87.21.59.13c3.36,9.24,10.28,19,19.06,26.83h0A118,118,0,0,1,306.27,358.26Z"/><path class="cls-4" d="M347.52,245.57a152.66,152.66,0,0,1-19.13-21.9A168,168,0,0,0,347.52,245.57Z"/><path class="cls-4" d="M372.63,267.74h0l-.08-.07-.16-.15,0,0-2.08-2.05c.73.68,1.44,1.36,2.12,2.06A1.88,1.88,0,0,1,372.63,267.74Z"/><path class="cls-4" d="M372.66,267.77h0Z"/><path class="cls-4" d="M373.35,268.47l-.69-.69h0s0,0,0,0a.36.36,0,0,1,.11.1C373,268.1,373.18,268.28,373.35,268.47Z"/><path class="cls-4" d="M499.5,447.5c-9.69,11.08-20.29,15.23-30.34,13.59-11.73-1.91-22.72-11.71-30.66-27.59a55.17,55.17,0,0,0-7-10.9,0,0,0,0,0,0,0,48.83,48.83,0,0,0-5-5.2c-5.24-4.68-11.13-8.1-18-12.89-12.33-8.63-18.73-24.59-21.26-40.42-.41-2.55-.72-5.11-.94-7.62-.07-.78-.13-1.57-.17-2.34-.1-1.53-.16-3-.2-4.51-.05-2.57,0-5.06.11-7.44,0-.41,0-.81.07-1.21,0-.77.1-1.53.17-2.27s.14-1.47.22-2.19c.47-4,1.11-7.43,1.73-10.64h0c1.34-7,2.52-13.08,1.26-22.35-2.09-15.36-7-24.74-13.81-32.5,5.81.68,7.65,2.42,7.9,2.68l-.14-.22a13.88,13.88,0,0,0-8.83-5.75,19.12,19.12,0,0,0-2.23-.22c-.68-.7-1.39-1.38-2.12-2.06-6.55-6.13-14.31-11.86-22.75-19.86a168,168,0,0,1-19.13-21.9l-.14-.19h0q-.56-.76-1.11-1.56c-.79-1.13-1.59-2.3-2.39-3.5-9,9.59-18.36,14.73-27.38,18.63-2.91,12.33-5.36,20.45-12.07,29.45a48,48,0,0,1-1.8,19c-3.14-5-11-9.27-15-5.26-4.63-46.07,18.65-86.29,51-77.74a42.7,42.7,0,0,1,19.43-7c30.65-3.59,71.48,19.43,79.57,68,7.38,44.26,3.48,58.89,6.92,74.23,1.48,6.63,4.34,13.41,10.08,22.77,14.22,23.19,40,12,37,71C471.53,450.58,485.5,448.5,499.5,447.5Z"/><path class="cls-5" d="M375.69,271c-.62-.06-1.28-.12-2-.17-1.19-.08-2.52-.12-4-.09-.54,0-1.1,0-1.68,0s-1.18.05-1.8.09l-1,.07c-.64,0-1.3.1-2,.17l-2.12.24-1.09.14c-2.27.3-4.75.7-7.45,1.22a10,10,0,0,1,1-4l.65-.08.27,0,.33,0,.35,0,.83-.1.51-.05.84-.1,1.87-.19,1.26-.12.66-.06.75-.06.6-.05.5,0,1-.07.57,0,1.4-.08.9-.05,1.19,0,2,0h.16c.73,0,1.43,0,2.08.05l0,0,.16.15.08.07,0,0h0l.69.69c.12.11.24.23.35.35C374.38,269.53,375,270.25,375.69,271Z"/><path class="cls-5" d="M372.63,267.74h0l-.08-.07-.16-.15,0,0h0A1.88,1.88,0,0,1,372.63,267.74Z"/><path class="cls-5" d="M372.66,267.77h0Z"/><path class="cls-5" d="M373.35,268.47l-.69-.69h0s0,0,0,0a.36.36,0,0,1,.11.1C373,268.1,373.18,268.28,373.35,268.47Z"/><path class="cls-6" d="M365.5,276.73c5.43-.22,10.43,3.22,12.53,9-3,3.28-12,9.28-26.53,1.5,3.35-6.29,7.85-9.49,12.24-10.3a13,13,0,0,1,1.75-.19Z"/><path class="cls-7" d="M372,283.32a6.75,6.75,0,0,1-4.48,6.6,7.11,7.11,0,0,1-9-5.5,7,7,0,0,1,5.15-7.5,6.31,6.31,0,0,1,1.57-.2h.19A7,7,0,0,1,372,283.32Z"/><path d="M366.22,286.09a3.16,3.16,0,0,1-4-2.45,3,3,0,1,1,6-.48A3,3,0,0,1,366.22,286.09Z"/><path class="cls-6" d="M328.07,287.22c-5.57,3.29-10.54,4.07-14.65,3.68l-.41,0,.09-.69.37,0a7.21,7.21,0,0,0,7.34-5,4.91,4.91,0,0,0,.17-.78,7,7,0,0,0-5.15-7.5c3.86.71,7.81,3.27,11,8.16h0C327.25,285.75,327.67,286.46,328.07,287.22Z"/><path class="cls-6" d="M312,289.92a6.73,6.73,0,0,0,1.08.24l-.09.69a21,21,0,0,1-11.47-5.13,13.31,13.31,0,0,1,8.6-8.48,11.77,11.77,0,0,1,3.93-.51,6.5,6.5,0,0,0-3.55,1.21,7,7,0,0,0-3,5.38A6.75,6.75,0,0,0,312,289.92Z"/><path class="cls-8" d="M315.83,276.92a13,13,0,0,0-1.75-.19h0l-.42,0h-.17l-.2,0-.2,0a.61.61,0,0,0-.13,0l-.14,0-.16,0h0a6.24,6.24,0,0,0-.86.3l-.32.15a7.52,7.52,0,0,0-.91.54l0,0-.46.36,0,0c-.11.09-.21.19-.31.29a1.25,1.25,0,0,0-.23.23,2.25,2.25,0,0,0-.21.24,2.2,2.2,0,0,0-.28.34c-.07.08-.12.16-.18.24l0,.07c-.05.08-.11.16-.15.24a2.38,2.38,0,0,0-.18.3,4.87,4.87,0,0,0-.28.56,3,3,0,0,0-.15.38.61.61,0,0,0-.05.12,2.4,2.4,0,0,0-.12.38,7.91,7.91,0,0,0-.19.81c0,.1,0,.2,0,.3s0,.31,0,.46a6.43,6.43,0,0,0,5.56,6.84l.37,0,.5,0a3.17,3.17,0,0,0,.43,0h.17a4.11,4.11,0,0,0,.6-.08,6.25,6.25,0,0,0,.72-.17,4.11,4.11,0,0,0,.46-.15,4.87,4.87,0,0,0,.53-.21,2.53,2.53,0,0,0,.37-.18,3.1,3.1,0,0,0,.47-.26,3.42,3.42,0,0,0,.4-.26,7,7,0,0,0,2-2.11,7.29,7.29,0,0,0,.48-1l0-.07c.06-.17.12-.35.17-.53s.06-.19.08-.29a3.86,3.86,0,0,0,.09-.49A7,7,0,0,0,315.83,276.92Zm1.5,6.72a1.31,1.31,0,0,1-.06.27,3.18,3.18,0,0,1-3.93,2.18,3,3,0,0,1-2-2.93,3.14,3.14,0,0,1,1.38-2.43,2.85,2.85,0,0,1,1.61-.51A3.08,3.08,0,0,1,317.33,283.64Z"/><path class="cls-9" d="M315.83,276.92a13,13,0,0,0-1.75-.19h.18A6.31,6.31,0,0,1,315.83,276.92Z"/><path d="M317.33,283.64a1.31,1.31,0,0,1-.06.27,3.18,3.18,0,0,1-3.93,2.18,3,3,0,0,1-2-2.93,3.14,3.14,0,0,1,1.38-2.43,2.85,2.85,0,0,1,1.61-.51A3.08,3.08,0,0,1,317.33,283.64Z"/><path class="cls-1" d="M329,314c-1,3.23,5,3.23,7,5.38s8,2.16,10,0,8-2.15,7-5.38"/><path class="cls-10" d="M353,313c-.54,3.22-5.13,5.22-7,7.32s-8.06,2.24-10.07,0c-1.85-2.06-6.09-4.1-6.92-7.17,1.24,1.94,5.28,2.4,6.87,4.44,2,2.63,8.14,2.63,10.17,0C347.67,315.5,351.87,315.08,353,313Z"/><path class="cls-1" d="M315.5,324.5c9,5,22,10,40,6"/><path class="cls-1" d="M349.5,338.5a7.49,7.49,0,0,1-1.4.52c-4.75,1.4-14.57,1.11-20.09-2.21a4.33,4.33,0,0,1-.51-.31"/><path class="cls-2" d="M375.92,340.43c-.05.26-.09.55-.14.87,0,0,0,.06,0,.09-.05.35-.1.73-.16,1.14,0,.22-.06.46-.09.7-.09.69-.19,1.45-.28,2.29q0,.44-.09.9l0,.3c0,.26-.05.51-.07.77s-.05.53-.07.8-.05.55-.07.84c0,.56-.08,1.15-.12,1.75-.17,2.48-.27,5.29-.28,8.38,0,2.85.08,5.95.28,9.27a245,245,0,0,0-41.28,21.23c-5.13-3-10.8-6.09-16.71-9.07-3.71-1.86-7.52-3.67-11.36-5.36.08-.72.15-1.43.21-2.14.05-.5.09-1,.13-1.49s.07-.87.1-1.3c.08-1,.14-1.91.19-2.84s.09-1.85.12-2.74c0-1.06.07-2.1.08-3.11,0-1.19,0-2.34,0-3.45V358c0-.44,0-.87,0-1.3s0-1,0-1.47,0-.85,0-1.26a.76.76,0,0,0,0-.15c0-.12,0-.23,0-.35q0-.66-.06-1.29v0c0-.65-.07-1.27-.11-1.88s-.08-1.19-.13-1.76c-.07-.84-.14-1.64-.22-2.39-.06-.55-.11-1.07-.17-1.57l0-.26,0-.26c0-.12,0-.24-.05-.36,0-.34-.08-.66-.13-1s0-.31-.06-.46,0-.09,0-.14,0-.17,0-.25,0-.24,0-.36-.07-.48-.11-.7a73.84,73.84,0,0,0,8.9,6.81c.75.48,1.5,1,2.26,1.4,7.7,4.59,16.1,7.45,24.41,7.45C353.36,356.5,366,349.65,375.92,340.43Z"/><path class="cls-1" d="M267.39,383c4.22-2.47,8.32-4.12,11.11-4.49"/><path class="cls-1" d="M299,372.61c-2.83-1.14-5.66-2.18-8.45-3.11"/><path class="cls-11" d="M386,342.17c-.12,2.38-.16,4.87-.11,7.44,0,1.48.1,3,.2,4.51,0,.77.1,1.56.17,2.34a76.47,76.47,0,0,0-11.8,2.8c0-3.09.11-5.9.28-8.38,0-.6.08-1.19.12-1.75,0-.29,0-.56.07-.84s0-.53.07-.8,0-.51.07-.77l0-.3q0-.46.09-.9c.09-.84.19-1.6.28-2.29,0-.24.06-.48.09-.7.06-.41.11-.79.16-1.14,0,0,0-.06,0-.09.05-.32.09-.61.14-.87h0l.7-.67c1-.93,1.94-1.89,2.86-2.86v0l.19-.19c.43-.45.84-.89,1.24-1.35l.27-.29.68-.78c1-1.11,1.91-2.25,2.79-3.4.36-.46.72-.93,1.06-1.4.88-1.19,1.72-2.4,2.5-3.6-.62,3.21-1.26,6.62-1.73,10.64-.08.72-.16,1.44-.22,2.19s-.13,1.5-.17,2.27C386.08,341.36,386.06,341.76,386,342.17Z"/><path class="cls-1" d="M326.85,430.94A188.09,188.09,0,0,0,379.5,415.5"/><path class="cls-12" d="M295.42,504.68a1.24,1.24,0,0,1-.66,1.24c-2.84,1.25-7.42-.5-8.24-1.42-1.17-4.18-1.92-11.44-2.41-20.19a32.39,32.39,0,0,0,10.18,1.57C294.56,492.87,294.93,499.32,295.42,504.68Z"/><path class="cls-12" d="M324.5,532.5c-1,3-7.17,7.51-8,4A175.32,175.32,0,0,1,313.12,513a45,45,0,0,0,10,0C323.44,519.92,323.87,526.53,324.5,532.5Z"/><path class="cls-1" d="M461.69,566.4a25.84,25.84,0,0,1,3.81.1c10,1,23,13,25,23"/><path class="cls-1" d="M450.5,578.5a67.56,67.56,0,0,0-8.66-7.41"/><path class="cls-1" d="M406.72,569.54c5.12,2.18,10.33,5.13,13.78,9"/><path class="cls-1" d="M362.12,529.31c-.7,2.64-.05,7.17,4.54,14A63.25,63.25,0,0,0,377.55,551"/><path class="cls-1" d="M346.78,536.29c1.49,8.76,8.72,23.21,8.72,23.21"/><path class="cls-1" d="M339,549.18a141,141,0,0,0,7.52,18.32"/><path class="cls-1" d="M335.94,566.11a155.08,155.08,0,0,0,6.56,15.39"/><path class="cls-1" d="M366.66,543.29a40,40,0,0,1-6.16-6.79"/><path class="cls-1" d="M380.5,552.5s-1.15-.53-2.95-1.54"/><path class="cls-1" d="M376.5,612.5a13.9,13.9,0,0,0,8.67.48"/><path class="cls-1" d="M403.5,621.5c-1.68-.3-3.29-.6-4.84-.9"/><path class="cls-13" d="M502.5,592.5q-1,4.63-2.34,9.17c-6.53,21.64-19.71,40.46-41.18,44.49a50.92,50.92,0,0,1-17.54.09,67.88,67.88,0,0,1-7.94-1.75c-31.07-8.74-22.55-1.45-34.84-23.9-17-3.26-26.16-2.1-26.38-12.16,4.09,1.57,8.42,3.12,12.89,4.54,6.9-1.82,14.48-9.25,14.64-29.9,0-2.64-.07-5.49-.31-8.58,0,0-.91-3.65-2.42-8.37a83.11,83.11,0,0,1,9.64,3.41,40.59,40.59,0,0,1,11.79-4.71,24.45,24.45,0,0,1,6.15-.43,26.24,26.24,0,0,1,5.78,1,29.4,29.4,0,0,1,3.49,1.24c.83.34,1.68.73,2.54,1.18a37.18,37.18,0,0,1,3.31,1.91c.68.42,1.36.88,2.06,1.37l.94-.23c1.43-.36,2.78-.74,4.08-1.12h0c2.25-.65,4.33-1.3,6.34-1.84,1.57-.43,3.11-.8,4.65-1.07a30.32,30.32,0,0,1,3.83-.43l5.81-22.9-27.72-17.37c5.35-15.14,8.86-35.25,5.25-59.48a162,162,0,0,0-13.52-44,55.17,55.17,0,0,1,7,10.9c7.94,15.88,18.93,25.68,30.66,27.59,2.06,4.42,4.22,9.26,6.4,14.41C491.24,512.53,508.22,565.54,502.5,592.5Z"/><path class="cls-14" d="M351.1,649.2l12.07-44c2.67,1.17,5.57,2.36,8.62,3.54.34,8.12,6.44,9.06,17.4,10.73,2.71.42,5.78.89,9.14,1.53,1.83,3.33,3.19,6,4.28,8.16,4.71,9.26,4.86,9.37,15.74,11.93,3.55.84,8.42,2,15,3.84a71.46,71.46,0,0,0,7.46,1.68l-8.67,34.17Z"/><path d="M363.5,605.94c2.44,1,5.06,2.13,7.81,3.2.51,8.23,7.09,9.24,17.8,10.88,2.65.4,5.64.86,8.9,1.47,1.76,3.23,3.08,5.84,4.16,8,4.77,9.38,5.07,9.6,16.07,12.19,3.54.84,8.4,2,15,3.83a68.91,68.91,0,0,0,7,1.6L439,651.64,437.68,657l-4.1,16.16-1.77,7L351.7,648.9l.7-2.57L362,611.27l1.47-5.33m-.66-1.38L361.07,611l-9.63,35.07-.94,3.43,82,32,2.05-8.08,4.1-16.16,1.36-5.37,1.43-5.64a67.88,67.88,0,0,1-7.94-1.75c-31.07-8.74-22.55-1.45-34.84-23.9-17-3.26-26.16-2.1-26.38-12.16-3.32-1.28-6.49-2.58-9.44-3.88Z"/><path class="cls-14" d="M441.94,570.55c-6.33-4.44-12.62-6.69-18.67-6.69-7,0-12.53,2.95-16.54,5.11l0,0a84,84,0,0,0-9.23-3.27c-2-6.29-5.14-14.52-8.59-18.55-1.71-2-4.34-4.69-7.63-7.81l11.55-42.08,74.13,46.45-5.63,22.19c-4.09.23-7.84,1.35-12.15,2.63C446.89,569.22,444.56,569.91,441.94,570.55Z"/><path d="M393.1,498.06l35.17,22,11,6.88,27.1,17-5.45,21.48A55,55,0,0,0,449,568.07c-2.19.65-4.45,1.32-7,1.94-6.36-4.41-12.67-6.65-18.77-6.65-7.06,0-12.56,2.9-16.6,5.07a84.26,84.26,0,0,0-8.8-3.11c-2-6.3-5.15-14.43-8.61-18.47-1.71-2-4.21-4.56-7.45-7.64l11.29-41.15m-.6-1.56-.29,1-11.52,42c3,2.88,5.89,5.74,7.81,8,3.44,4,6.55,12.29,8.58,18.63a83.11,83.11,0,0,1,9.64,3.41c4-2.16,9.5-5.18,16.55-5.18,5.28,0,11.46,1.7,18.57,6.73,7.91-1.91,13.49-4.41,19.85-4.69l5.81-22.9-27.72-17.37-11-6.88L392.5,496.5Z"/><path class="cls-1" d="M392.5,497.5l-.29,0"/><path class="cls-15" d="M399.81,583.08c-.16,20.65-7.74,28.08-14.64,29.9-4.47-1.42-8.8-3-12.89-4.54-3.32-1.28-6.49-2.58-9.44-3.88A159.82,159.82,0,0,1,347.46,597c-1.62-.93-3-1.77-4-2.49-7-5-13-20-13-25,0-2.85,2.92-3.43,5.44-3.39-1.39-4-2.44-7.87-2.44-10.61,0-4.24,2.52-6,5.48-6.32a28.47,28.47,0,0,1-1.48-7.68c0-4.4,4.53-5.47,9.28-5.21a16.35,16.35,0,0,1-.28-2.79c0-.17,0-.33,0-.49a2.91,2.91,0,0,1,0-.31,2,2,0,0,1,0-.26,1.42,1.42,0,0,1,0-.22,1.82,1.82,0,0,1,.07-.25c0-.11.07-.22.11-.33s.09-.22.14-.32.11-.2.17-.3.12-.19.18-.28a3.23,3.23,0,0,1,.38-.45l.06-.06c.05-.06.1-.1.15-.15a2.11,2.11,0,0,1,.23-.19,4.54,4.54,0,0,1,.5-.36l.21-.12c.18-.1.37-.2.57-.29l.06,0h0a6.05,6.05,0,0,1,.64-.24l.47-.14.51-.13.35-.07.6-.1a4,4,0,0,1,.5-.06l.56-.05.45,0h.53a30.31,30.31,0,0,1,8,1c.65-2.44,2.45-3.28,3.38-2.81a9.85,9.85,0,0,1,1.21.82c2.67,2,8.64,7.14,14,12.2,3,2.88,5.89,5.74,7.81,8,3.44,4,6.55,12.29,8.58,18.63,1.51,4.72,2.42,8.37,2.42,8.37C399.74,577.59,399.84,580.44,399.81,583.08Z"/><path class="cls-13" d="M258.72,618.85c-.28.52-.57,1-.85,1.54-.71,1.29-1.41,2.52-2.1,3.71-.35.61-.7,1.2-1,1.78-.78,1.32-1.54,2.57-2.27,3.77-.19.31-.37.62-.56.92l-1.09,1.78-1.17,1.9c-1.16,1.9-2.22,3.65-3.15,5.29-.31.54-.61,1.07-.89,1.59s-.41.76-.59,1.12-.3.58-.43.87-.19.38-.27.56-.26.54-.37.81c-.26.57-.49,1.13-.68,1.68,0,.12-.09.24-.13.36-.11.3-.21.6-.29.9a1,1,0,0,0-.07.25,5.9,5.9,0,0,0-.21.8c-.06.23-.11.45-.15.68s-.06.31-.08.47a.06.06,0,0,0,0,0,12.65,12.65,0,0,0,1.91,8.9l-.78.08-.61.07-.45.06-.57.08c-1.12.16-2.3.38-3.51.67-.42.1-.85.2-1.28.32l-.48.13-.48.14a2,2,0,0,0-.23.06l-.09,0-1.37.44c-.63.21-1.27.44-1.9.69s-1.1.45-1.66.69l-.78.35c-.55.26-1.1.52-1.65.8s-1.15.61-1.73.94a41.11,41.11,0,0,0-4.18,2.75,43.61,43.61,0,0,0-11,12.13,49.94,49.94,0,0,0-2.56,4.66c-.14.3-.29.6-.42.9s-.24.51-.35.77c-.4.89-.78,1.82-1.15,2.77-.2.52-.4,1-.58,1.59a.36.36,0,0,0,0,.11c-.16.43-.3.87-.45,1.32-.21.62-.4,1.26-.59,1.91s-.33,1.13-.48,1.7-.32,1.22-.47,1.85c-.36,1.51-.68,3.08-1,4.7-.07.38-.13.77-.19,1.16-.14.85-.27,1.72-.39,2.6-.08.65-.16,1.3-.24,2,0,.22,0,.43-.07.65-.07.71-.14,1.44-.2,2.17,0,.44-.07.87-.1,1.31s-.06.87-.08,1.32,0,.89-.07,1.35,0,.81,0,1.23a142.83,142.83,0,0,0,.6,18.32c-3.77-3.15-11.92-14.53-11.15-53.86-8-37,3-28,8-100,.17-2.38.33-4.74.51-7.08,3.63-49.61,8.78-89.53,21.44-119.65a120.69,120.69,0,0,1,13-23.7h0a93.27,93.27,0,0,1,17.89-18.9c.2.25.41.5.65.75s.32.35.5.52l.07.07c.17.17.35.33.54.49s.45.39.69.58.45.36.69.53.5.36.77.54c-.27.51-.53,1-.78,1.52-13.85,27-18.65,51-18.62,71.23a119.21,119.21,0,0,0,7.35,41.45h0A105.87,105.87,0,0,0,254.5,548.5c3,21-.24,21.66-2,41C251.85,596.65,255.85,607.4,258.72,618.85Z"/><path class="cls-1" d="M234.48,429.07s0,0,0,0"/><path class="cls-1" d="M203.5,639.5c19-8,37-31,41-43"/><path class="cls-6" d="M294.29,485.88a32.39,32.39,0,0,1-10.18-1.57c-1-17.66-.95-41.37-1.33-58,0-1.61-.07-3.16-.12-4.63-.15-4.59-.34-8.43-.63-11.14a4.67,4.67,0,0,1,0-.52c-.06-5.74,9.31-6.25,11.32-1.44a5,5,0,0,1,.38,2c0,1.62-.05,6.09-.09,12.34v.1c0,2.71,0,5.76,0,9.05C293.52,447.44,293.61,468.35,294.29,485.88Z"/><path class="cls-6" d="M324.5,423.5c0,1-.09,3.35-.23,6.64,0,.36,0,.73,0,1.12-.67,16-2.27,51.82-1.06,81.72a45,45,0,0,1-10,0c-1.24-14-1.62-28.8-1.62-37.46,0-8.49,1-30.86,1.58-43.31.25-5.21.42-8.69.42-8.69C313.5,416.5,324.5,416.5,324.5,423.5Z"/><path class="cls-16" d="M387.24,364.08c-4.13,1.31-8.3,2.8-12.46,4.45-.2-3.32-.28-6.42-.28-9.27a76.47,76.47,0,0,1,11.8-2.8C386.52,359,386.83,361.53,387.24,364.08Z"/><path class="cls-13" d="M426.47,417.39a125.12,125.12,0,0,1-13.2,6.21c-1.66.68-3.36,1.33-5.07,1.95a154.89,154.89,0,0,1-54.32,9.24,103.69,103.69,0,0,1-27-3.85h0c-.89.12-1.76.23-2.62.32,0-.39,0-.76,0-1.12.11-2.59.19-4.58.22-5.81,0-.33,0-.61,0-.83,0-7-11-7-11,0,0,0,0,.88-.12,2.41s-.18,3.68-.3,6.28a172.79,172.79,0,0,1-19.51-.2c0-1.39,0-2.73,0-4,0-1.77,0-3.45,0-5l.08-.1a129.78,129.78,0,0,1,12.22-12.36c3.6-3.24,7.52-6.46,11.68-9.64l0,0c5-3.79,10.3-7.5,15.88-11.06a245,245,0,0,1,41.28-21.23c2.76-1.1,5.53-2.12,8.29-3.06,1.39-.49,2.78-1,4.17-1.39,2.53,15.83,8.93,31.79,21.26,40.42,2.88,2,5.59,3.79,8.15,5.52A87.93,87.93,0,0,1,426.47,417.39Z"/><path class="cls-13" d="M333.5,389.76c-5.58,3.56-10.91,7.27-15.88,11.06l0,0c-4.16,3.18-8.08,6.4-11.68,9.64a129.78,129.78,0,0,0-12.22,12.36h-.08c0-6.25.09-10.72.09-12.34a5,5,0,0,0-.38-2c-2-4.81-11.38-4.3-11.32,1.44a4.67,4.67,0,0,0,0,.52c.29,2.71.48,6.55.63,11.14q-3.2-.45-6-1c-9.63-1.79-16.18-4.22-20.37-7-.27-.18-.53-.36-.77-.54s-.47-.35-.69-.53-.47-.38-.69-.58-.37-.33-.54-.49l-.07-.07c-.18-.17-.35-.35-.5-.52s-.45-.5-.65-.75c-7.4-9.25,4.22-20.88,15-27.17-2.72-5.13-3.29-9.34-2.33-12.75a4.13,4.13,0,0,1,.15-.5,10.53,10.53,0,0,1,.83-1.88c.08-.15.17-.3.26-.45s.18-.29.28-.43.19-.28.3-.42l.31-.41c.11-.14.23-.27.34-.4h0c.34-.38.69-.74,1.07-1.09.19-.18.39-.35.59-.52s.41-.33.62-.49l.66-.48c.22-.16.46-.31.7-.46s.46-.29.7-.42.48-.28.74-.41.51-.27.77-.4c.79-.38,1.62-.74,2.48-1.06.28-.1.56-.21.84-.3s.58-.2.88-.3c.56-.18,1.12-.34,1.7-.5l.11,0,.94-.24c.52-.13,1.05-.25,1.58-.36l.55-.11.19,0,.14,0c.79-.16,1.57-.29,2.38-.41l.89-.13.52-.06,1.2-.14c1.8-.19,3.62-.3,5.43-.35l1,0a68,68,0,0,1,12.06.86c0,.25,0,.5,0,.76,0,.87,0,1.77,0,2.69s0,2.05-.08,3.11c0,.89-.07,1.81-.12,2.74s-.12,1.88-.19,2.84c0,.43-.06.86-.1,1.3s-.08,1-.13,1.49c-.06.68-.12,1.36-.2,2.05a.62.62,0,0,0,0,.09A287.69,287.69,0,0,1,333.5,389.76Z"/><path class="cls-17" d="M274.93,426.32c-.34,1.06-.7,2.15-1.06,3.26-.14.4-.27.8-.4,1.2-1.09,3.26-2.28,6.74-3.52,10.44-.27.84-.56,1.69-.84,2.56l-.48,1.46c-.25.77-.5,1.56-.75,2.35-1.89,5.9-3.8,12.35-5.58,19.46-.1.38-.2.77-.29,1.16a259.87,259.87,0,0,0-5.19,27.07c-.08.54-.15,1.1-.23,1.65-.35,2.65-.67,5.36-.94,8.16-.13,1.19-.24,2.4-.35,3.62-.06.73-.13,1.46-.18,2.2s-.12,1.47-.17,2.22l-.15,2.26c-.05.73-.09,1.46-.13,2.19q-.22,3.82-.34,7.82c0,.56,0,1.13,0,1.7-.17,6.77-.11,13.89.21,21.4-12.42-19.12-32.16-65.64-.68-130,.54-1.12,1.1-2.24,1.68-3.37,4.79,6.35,15.27,10,19.07,11.08Z"/><path class="cls-17" d="M439.78,526.13l-8.73-5.47-2.25-1.41c-2-39.19-11.24-65.81-17.82-85.29-.22-.65-.43-1.28-.65-1.91q-1.14-3.39-2.13-6.5c1.18-.43,2.35-.87,3.51-1.33q5.6-2.18,10.81-4.78c1.34-.66,2.66-1.34,4-2.05a48.83,48.83,0,0,1,5,5.2,0,0,0,0,1,0,0,162,162,0,0,1,13.52,44C448.64,490.88,445.13,511,439.78,526.13Z"/><path class="cls-6" d="M392.21,497.54l-11.52,42c-5.34-5.06-11.31-10.19-14-12.2l8.79-31.82C381.42,498.46,385.39,498.5,392.21,497.54Z"/><path class="cls-6" d="M362.84,604.56,361.07,611l-9.63,35.07-.94,3.43c-7-5-17-2-17-2l.71-2.56,11.39-41.23,1.86-6.72A159.82,159.82,0,0,0,362.84,604.56Z"/><path class="cls-18" d="M432.5,681.5s-2.21,2.33-10.6.66L416.4,680l-82.9-32.5s10-3,17,2Z"/><path class="cls-13" d="M346.19,652.47,416.4,680c-3.81,1.47-7.75,3-11.8,4.52C388.21,690.7,370,696.89,351,699c-45,5-102-40-101-51a19.76,19.76,0,0,1,1.74-5.94C256.57,631,269.35,615.89,266,605c-7-26-1-31-2-50s-6-33-7.18-59.72A259.87,259.87,0,0,1,262,468.21c.09-.39.19-.78.29-1.16,1.78-7.11,3.69-13.56,5.58-19.46.25-.79.5-1.58.75-2.35l.48-1.46c.28-.87.57-1.72.84-2.56,1.24-3.7,2.43-7.18,3.52-10.44.13-.4.26-.8.4-1.2.36-1.11.72-2.2,1.06-3.26.47-1.47.92-2.9,1.32-4.28.14-.46.27-.92.4-1.37q2.82.52,6,1c0,.75,0,1.52.07,2.31s0,1.53,0,2.32c.38,16.67.34,40.38,1.33,58,.49,8.75,1.24,16,2.41,20.19a2.28,2.28,0,0,0,.55.42l0,0c1.52.92,5.19,2,7.62,1l0,0a1.24,1.24,0,0,0,.66-1.24c-.49-5.36-.86-11.81-1.13-18.8-.63-16.18-.75-35.24-.73-50.23,0-1.25,0-2.47,0-3.66a172.79,172.79,0,0,0,19.51.2q-.06,1.17-.12,2.46c0,.27,0,.54,0,.81,0,.54-.05,1.1-.08,1.66-.58,12.74-1.34,30.92-1.34,38.38,0,8.66.38,23.43,1.62,37.46.39,4.45.87,8.82,1.44,12.9.55,3.87,1.2,7.48,1.94,10.64.36,1.53,1.75,1.54,3.27.8,2-.95,4.17-3.11,4.73-4.8-.63-6-1.06-12.58-1.34-19.52-.14-3.36-.24-6.8-.31-10.28-.46-22.78.38-47.22,1-63,.13-3.22.25-6.07.35-8.47.86-.09,1.73-.2,2.62-.32h0c23.65,6.95,54.9,4.18,81.35-5.39,1.08,3.43,2.33,7.1,3.67,11.05l.83,2.45c6.37,19,14.3,44.32,16.1,80.2L392.5,496.5l-.29,1c-6.82,1-10.79.92-16.71-2l-8.79,31.82a9.85,9.85,0,0,0-1.21-.82c-.93-.47-2.73.37-3.38,2.81a30.31,30.31,0,0,0-8-1h-.53l-.45,0-.56.05a4,4,0,0,0-.5.06l-.6.1-.35.07-.51.13-.47.14a6.05,6.05,0,0,0-.64.24h0l-.06,0a5.07,5.07,0,0,0-.57.29l-.21.12a4.54,4.54,0,0,0-.5.36,2.11,2.11,0,0,0-.23.19c-.05,0-.1.09-.15.15l-.06.06a3.23,3.23,0,0,0-.38.45c-.06.09-.13.19-.18.28s-.12.2-.17.3-.09.21-.14.32-.08.22-.11.33a1.82,1.82,0,0,0-.07.25,1.42,1.42,0,0,0,0,.22,2,2,0,0,0,0,.26,2.91,2.91,0,0,0,0,.31c0,.16,0,.32,0,.49a16.35,16.35,0,0,0,.28,2.79c-4.75-.26-9.28.81-9.28,5.21a28.47,28.47,0,0,0,1.48,7.68c-3,.37-5.48,2.08-5.48,6.32,0,2.74,1.05,6.65,2.44,10.61-2.52,0-5.44.54-5.44,3.39,0,5,6,20,13,25,1,.72,2.34,1.56,4,2.49l-13.25,48-.71,2.56Z"/><path class="cls-16" d="M460.26,669.8a9.12,9.12,0,0,0-1-.21c-6.78-1-15.11.73-24.67,3.83L440,651.89l1.43-5.64a50.92,50.92,0,0,0,17.54-.09c.27,2.34.54,4.93.77,7.62A132,132,0,0,1,460.26,669.8Z"/><path class="cls-1" d="M263.5,609.5c-1.62,3.39-3.22,6.49-4.78,9.35"/><path class="cls-1" d="M267.79,633.91c19.14,13.5,48.74,32.19,86.42,39.18"/><path class="cls-1" d="M455.84,703.85l-.34.07"/><path class="cls-18" d="M455.5,703.92l-1.14.21c-3.09.54-6.88,1.07-11.25,1.58h0c-2.4.28-5,.56-7.71.84l-2.54.25-6.08.55q-3,.27-6.17.52-3.9.32-8,.62l-4.68.34c-4.73.33-9.63.65-14.63,1,18.22-7.34,36.63-18.27,61.19-26l.05.17a147.49,147.49,0,0,1,1,15.55C455.49,701.34,455.5,702.87,455.5,703.92Z"/><path class="cls-19" d="M494.5,983.5c-3-12-6-1-4-27s-35-251.5-35-251.5v-1.08l-1.14.21c-3.09.54-6.88,1.07-11.25,1.58h0c-2.4.28-5,.56-7.71.84l-2.54.25-6.08.55q-3,.27-6.17.52-3.9.32-8,.62l-4.68.34c-4.73.33-9.63.65-14.63,1h0c-19.36,7.79-38.51,11.52-64.55,3h0c-17.87.59-33.59.88-44,.78h-.2c-.64,1-1.33,2.12-2.08,3.29s-1.48,2.31-2.29,3.55c-.33.51-.66,1-1,1.55-.7,1.1-1.44,2.23-2.2,3.4l-2,3.12c-2.47,3.8-5.12,7.88-7.78,12.07l-1.14,1.79c-.76,1.2-1.52,2.4-2.27,3.61-.62,1-1.23,2-1.84,3-4.63,7.49-9,15-12.42,21.6q-.63,1.22-1.2,2.4h0c0,5,.17,11.95.6,20.19,2,37.23,8.51,101.35,16.7,139.37,10.94,50.71,11,183.49.19,245a89.15,89.15,0,0,1,9.4-.62c33-.49,59.33,17,79.87,25.3,12.93-124.47-13.4-202.85-8.46-220.64a35,35,0,0,0-3.41-27.66c14.86-28,.51-24.84,2.41-34.34,6.88-34.42,9.45-129.27,9.91-162.07v0c0-.26,0-.51,0-.76v-.06c0-.25,0-.5,0-.74v0c0-.25,0-.49,0-.72v0c0-.24,0-.47,0-.7h0c0-.23,0-.46,0-.68,0-2.18,0-3.93,0-5.2h7s28.52,133.2,49,181c2.52,5.89-5.56,11.77,3.1,26-6.46,14.73,1,11.79,2.9,30,2,19,4,74,15,149a419.54,419.54,0,0,1,4.19,55.19c3.69-2.24,7.81-5,12.38-7.83,18.58-11.73,44.48-26.41,78.56-24.71C517,1131.94,497.32,994.8,494.5,983.5ZM340.3,733.29h.34Zm36.46-4.82.71-.16h0Z"/><path class="cls-19" d="M340.64,733.27l-.34,0h.34Z"/><path class="cls-19" d="M377.47,728.31h0l-.71.15Z"/><path class="cls-18" d="M328.68,712.81c-14,.46-26.71.74-36.56.79-2.79,0-5.36,0-7.66,0-.64,1-1.33,2.12-2.08,3.29s-1.48,2.31-2.29,3.55c-.33.51-.66,1-1,1.55-.7,1.1-1.44,2.23-2.2,3.4l-2,3.12c-2.47,3.8-5.12,7.88-7.78,12.07l-1.14,1.79c-.76,1.2-1.52,2.4-2.27,3.61-.62,1-1.23,2-1.84,3-4.63,7.49-9,15-12.42,21.6q-.57.19-1.17.36c-15.15,4.37-39.84,0-43.73-23.39q-1.25-7.47-1.85-14.14a147.21,147.21,0,0,1-.67-15.24c0-1,0-2.07.07-3.08,0-.41,0-.82,0-1.23s0-.9.07-1.35.05-.88.08-1.32.07-.87.1-1.31c.06-.73.13-1.46.2-2.17,0-.22,0-.43.07-.65.08-.67.16-1.32.24-2,.12-.88.25-1.75.39-2.6.06-.39.12-.78.19-1.16.29-1.62.61-3.19,1-4.7.15-.63.31-1.24.47-1.85s.31-1.14.48-1.7.38-1.29.59-1.91c.15-.45.29-.89.45-1.32a.36.36,0,0,1,0-.11c.18-.54.38-1.07.58-1.59.37-1,.75-1.88,1.15-2.77.11-.26.23-.52.35-.77s.28-.6.42-.9c5.69,6.24,15.93,14.36,23.33,18.21l.08,0c-.14.28-.28.59-.42.91-1.69,4-4.45,9.11-4.06,12.19a2.84,2.84,0,0,0,.92,1.87c.87.75,9.09,1.83,10.66.91s1.42-4.62.69-8.28c-.54-2.7-1.32-5.42-1.72-7.13-.46-1.94-1.26-3.06-2.19-3.37l0-.14c-8.08-4.21-19.53-13.49-24.77-19.87a43.61,43.61,0,0,1,11-12.13c5.94,8,19.63,19.6,30.61,26.2,1.12.67,2.21,1.28,3.26,1.84-.14.28-.28.59-.42.91-2.11,5-5.87,11.66-3.14,14.06.87.75,9.09,1.83,10.66.91.93-.54,1.27-1.86,1.27-3.53,0-.23,0-.47,0-.71s0-.45-.05-.68,0-.56-.09-.83-.06-.5-.1-.75c0-.1,0-.19,0-.29s-.07-.46-.12-.7-.08-.46-.13-.68c-.1-.55-.22-1.1-.35-1.64-.33-1.46-.7-2.86-1-4,0-.09-.05-.18-.07-.26-.12-.48-.23-.91-.32-1.3-.41-1.74-1.1-2.82-1.91-3.25l.06-.11c-.46-.24-.92-.49-1.39-.76s-.8-.44-1.2-.68l-.24-.14h0l-.44-.26-1.13-.69c-.58-.35-1.16-.71-1.74-1.09l-.78-.52-.13-.08c-1.81-1.19-3.65-2.48-5.49-3.85-.37-.27-.74-.54-1.1-.82q-1.72-1.3-3.44-2.67l-.94-.77c-1.08-.88-2.15-1.77-3.19-2.66-.54-.47-1.08-.94-1.6-1.41-2-1.74-3.82-3.49-5.5-5.19-.32-.32-.63-.63-.93-.95a60.27,60.27,0,0,1-4.66-5.35c.58-.33,1.15-.65,1.73-.94l1.28-.63.37-.17.78-.35c.56-.24,1.11-.48,1.66-.69s1.27-.48,1.9-.69l1.37-.44.09,0a2,2,0,0,1,.23-.06l.48-.14.48-.13c.43-.12.86-.22,1.28-.32,1.21-.29,2.39-.51,3.51-.67l.57-.08.45-.06.61-.07.78-.08c4.23,7,15.38,15.34,37.27,29.93C299.76,700.67,315.15,708.39,328.68,712.81Z"/><path class="cls-1" d="M249.5,770.5l-.1,0"/><path class="cls-1" d="M261.5,692.5q-.47-.22-.93-.48"/><path class="cls-20" d="M260.57,692l-.06.11c-1.29-.69-2.88.25-4.16,2.78-11.37-6-27.32-19.26-33.87-28a41.11,41.11,0,0,1,4.18-2.75C233.38,673,249.3,686.11,260.57,692Z"/><path class="cls-20" d="M263.45,710.79c-1.57.92-9.79-.16-10.66-.91-2.73-2.4,1-9,3.14-14.06.14-.32.28-.63.42-.91,1.28-2.53,2.87-3.47,4.16-2.78.81.43,1.5,1.51,1.91,3.25C263.37,699.42,266.42,709.05,263.45,710.79Z"/><path class="cls-20" d="M236.27,698.87l0,.14c-1.23-.43-2.69.55-3.88,2.9l-.08,0c-7.4-3.85-17.64-12-23.33-18.21A49.94,49.94,0,0,1,211.5,679C216.74,685.38,228.19,694.66,236.27,698.87Z"/><path class="cls-20" d="M239.45,717.79c-1.57.92-9.79-.16-10.66-.91-2.73-2.4,1-9,3.14-14.06.14-.32.28-.63.42-.91,1.19-2.35,2.65-3.33,3.88-2.9.93.31,1.73,1.43,2.19,3.37C239.37,706.42,242.42,716.05,239.45,717.79Z"/><path class="cls-1" d="M343.09,953.84c-.79,1.47-1.64,3-2.59,4.66"/><path class="cls-1" d="M421.5,964.5a61,61,0,0,1-6.9-9"/><path class="cls-1" d="M248.23,770.89q0,1,0,2"/><path class="cls-21" d="M539.5,1190.5c-2.9-.58-5.88-1-8.92-1.35a84.81,84.81,0,0,0-26.28,1.38c-15.7,3.38-31.66,11.8-45.8,28-2.6,3-6.43,5-10.22,6.31a46.1,46.1,0,0,1-5.58,1.59,51.19,51.19,0,0,1-7.2,1.1,125.88,125.88,0,0,0-8-33,62.17,62.17,0,0,0,9.19-4.81c4-2.41,8.43-5.35,13.41-8.48,18.36-11.53,43.68-25.51,76.74-24.09l.79,0c1.6.08,3.23.2,4.87.35C533.5,1177.5,536.5,1174.5,539.5,1190.5Z"/><path class="cls-21" d="M358.5,1203.5c-2.18,10.92-3.31,18.13-3.76,24.72-.17,2.46-.24,4.83-.24,7.28a77.35,77.35,0,0,1-7.21-3.3l-.21-.11c-1.29-.65-2.66-1.36-4.1-2.11-2.08-1.08-4.32-2.24-6.69-3.45l-2.87-1.44a173.46,173.46,0,0,0-27.74-11.25c-.79-.24-1.58-.46-2.37-.68a108.42,108.42,0,0,0-14.89-3.05c-.63-.09-1.26-.16-1.9-.23q-2.92-.35-5.93-.49a87.09,87.09,0,0,0-20.32,1.3h0c-1.24.23-2.49.49-3.75.79s-2.66.64-4,1c-8.09,1.62,3-26,2-33,.95-.23,1.89-.45,2.83-.65h0c1.29-.27,2.57-.52,3.84-.73h0c1.51-.25,3-.47,4.5-.65l2-.21.72-.07,1.53-.12.88-.06h.05l.87,0,.72,0c.25,0,.5,0,.76,0l.57,0h.43l.74,0h1.88l1.45,0,1.86.06c.66,0,1.32,0,2,.09l1.79.13,1.36.12h.11l2,.21.51.06c.71.08,1.41.18,2.11.28l.9.13,1.25.2,1.38.24,1.18.22,1.08.21.37.07,1.44.31,1.33.3h0l1.46.35h0l1.16.3c.47.11.93.23,1.39.36l1.23.34,2.07.6,1.32.4,1.16.36.58.19,2.16.72.39.13,1.21.43q2.48.87,4.88,1.83l2.3.91,1.28.53c1.57.65,3.13,1.32,4.65,2l.09,0,1.06.47,2.42,1.08,1,.48,1,.48,2.48,1.15,1.11.53,1.84.87,3.6,1.72,2.12,1,1,.49c.7.34,1.39.66,2.07,1l1,.48,1.63.75.26.12.12,0,.89.4.4.18c.56.25,1.12.5,1.67.73l1.18.51,1.71.7h0Q356.76,1202.87,358.5,1203.5Z"/><path class="cls-6" d="M297.32,1220.59c.16,2.36-2.94,4.23-6,1.91a63.71,63.71,0,0,0-8.39-5.3c-1.25-.65-2.54-1.28-3.87-1.87,1.25.2,2.58.42,4,.67,3.75.67,8.66,1.28,13,2.24l.26.26A3.23,3.23,0,0,1,297.32,1220.59Z"/><path class="cls-4" d="M326.69,1244.7c-2.38.85-4.85,1.7-7.35,2.51l-2.07.66h0l-2.05.63c-3.37,1-6.77,2-10.08,2.7l-1,.22c-1.26.29-2.5.54-3.72.76l-1.14.2-.48.08-1,.15c-.64.11-1.27.19-1.9.27s-1.24.14-1.84.2c-7.9.75-14.17-.31-16.58-4.59-11.62-20.66-31.87-20.39-45.35-20.08,4.19-2.93,8.88-5.71,13.54-8.79h0c13.31-.07,25.53,5.83,33.58,11.87,4,3,8-1,5-4-7-7-19.71-11.87-32.85-11.88l1.12-.85c6.94-.2,11.76-1.7,26.47.56,1.33.59,2.62,1.22,3.87,1.87a63.71,63.71,0,0,1,8.39,5.3c3.1,2.32,6.2.45,6-1.91a3.23,3.23,0,0,0-1-2.09l-.26-.26c1,.24,2,.49,3,.76a62.52,62.52,0,0,1,20,10C325.1,1233.35,327.46,1239.28,326.69,1244.7Z"/><path class="cls-4" d="M347.29,1232.2c0,.44-.09.91-.15,1.42l-.06-1.53Z"/><path class="cls-6" d="M279.28,1231.5c-8-6-20.27-11.94-33.58-11.87,1.93-1.27,3.85-2.6,5.73-4,13.14,0,25.87,4.89,32.85,11.88C287.28,1230.5,283.28,1234.5,279.28,1231.5Z"/><path class="cls-6" d="M326.69,1244.7A11.31,11.31,0,0,1,324,1251c-.71.71-4,2-9,3.58-22.91,7.26-81.43,20.63-88,12.42-8-10-7.33-19.27-6.17-27.13a5.78,5.78,0,0,0,.07-.81h0c2.72-4.1,6.69-7.45,11.25-10.63,13.48-.31,33.73-.58,45.35,20.08,2.41,4.28,8.68,5.34,16.58,4.59.6-.06,1.22-.12,1.84-.2s1.26-.16,1.9-.27l1-.15.48-.08,1.14-.2c1.22-.22,2.46-.47,3.72-.76l1-.22c3.31-.75,6.71-1.68,10.08-2.7l2.05-.63h0l2.07-.66C321.84,1246.4,324.31,1245.55,326.69,1244.7Z"/><path class="cls-18" d="M530.58,1189.15l0,.19-1.06,0-1.11.07-.39,0c-.48,0-1,.08-1.44.15h-.16l-1.11.15h-.12l-.25,0-1.28.21h0l-.09,0c-.95.17-1.89.37-2.82.59h0l-1.41.37c-.75.21-1.49.43-2.21.66-.3.09-.59.19-.89.3l-1,.36-.92.35c-.47.17-.94.36-1.4.56l-1.37.59-1.08.5-1.07.52-.91.46-.89.47h0a73.33,73.33,0,0,0-17.66,5.59,2.69,2.69,0,0,1,.24-.48,2.11,2.11,0,0,1,.18-.27,2.47,2.47,0,0,1,.21-.27,39.35,39.35,0,0,1,13.82-9.86A84.81,84.81,0,0,1,530.58,1189.15Z"/><path class="cls-11" d="M505.53,1233.53c-13.19,4.22-42.2-3.9-57.25-8.72,3.79-1.34,7.62-3.34,10.22-6.31,14.14-16.17,30.1-24.59,45.8-28a39.35,39.35,0,0,0-13.82,9.86,2.47,2.47,0,0,0-.21.27,2.11,2.11,0,0,0-.18.27,2.69,2.69,0,0,0-.24.48A33.57,33.57,0,0,0,484,1205C471.39,1214.81,487.73,1227.07,505.53,1233.53Z"/><path class="cls-11" d="M533.62,1193a163.06,163.06,0,0,0-26.09,2.84l.89-.47.91-.46,1.07-.52,1.08-.5,1.37-.59,1.4-.56.92-.35,1-.36c.3-.11.59-.21.89-.3.72-.23,1.46-.45,2.21-.66l1.41-.37h0c.93-.22,1.87-.42,2.82-.59l.09,0h0l1.28-.21.25,0h.12l1.11-.15h.16q.72-.09,1.44-.15l.39,0,1.11-.07v.12C530.82,1190.5,532.22,1191.87,533.62,1193Z"/><path class="cls-18" d="M570,1243.15c-7.12,23.65-115.91-6.72-125.28-11-.78-2-1.43-4-2-5.77a46.1,46.1,0,0,0,5.58-1.59c15.05,4.82,44.06,12.94,57.25,8.72C513.14,1236.3,521,1238,527,1238c19.07,0,30,0,44.8-13C572.65,1229.85,572.18,1235.76,570,1243.15Z"/><path class="cls-6" d="M541,1197.46c-13.27,1-25,7.85-32.53,14.52-3.74,3.31-8.05-.35-5.3-3.58,6.4-7.53,18.68-13.42,31.78-14.48C536.94,1195.18,539,1196.35,541,1197.46Z"/><path class="cls-5" d="M326.87,272.71c-.65-.13-1.29-.24-1.92-.35a95.34,95.34,0,0,0-14.39-1.61c-1.79-.06-3.37,0-4.77.07-7.39.48-9.61,2.57-9.89,2.86a13.86,13.86,0,0,1,9-6,28.32,28.32,0,0,1,4.35-.28,152.81,152.81,0,0,1,16.65,1.28A10,10,0,0,1,326.87,272.71Z"/><ellipse class="cls-22" cx="317.25" cy="279.75" rx="0.86" ry="1.17" transform="translate(-63.49 463.98) rotate(-67.23)"/><ellipse class="cls-22" cx="368.25" cy="279.75" rx="0.86" ry="1.17" transform="translate(-32.24 511) rotate(-67.23)"/><path class="cls-11" d="M306.27,358.26a68,68,0,0,0-12.06-.86l-1,0c-1.81.05-3.63.16-5.43.35l-1.2.14-.52.06-.89.13c-.92.14-1.82.29-2.71.47l-.55.11c-.53.11-1.06.23-1.58.36l-.94.24-.11,0c-.58.16-1.14.32-1.7.5-.3.1-.59.19-.88.3s-.56.2-.84.3c-.86.32-1.69.68-2.48,1.06-.26.13-.52.26-.77.4s-.5.26-.74.41-.47.27-.7.42-.48.3-.7.46l-.66.48c-.21.16-.42.32-.62.49s-.4.34-.59.52c-.38.35-.73.71-1.07,1.09,1.12-17.05,8.47-20.74,9.52-55.1.29.18.57.34.86.5s.76.4,1.13.57l.64.31,1.21.51c.67.27,1.33.5,2,.69l.64.19.46.13.15,0a1.67,1.67,0,0,0,.3.08l.87.21.59.13c3.17,8.71,9.5,17.89,17.58,25.47.49.46,1,.92,1.48,1.36h0a107.41,107.41,0,0,1,1.15,11.36C306.18,354.06,306.25,356.08,306.27,358.26Z"/><path class="cls-10" d="M282.8,302.56c-.44,1.93-1.39,3.35-2.8,3.86-3.22,1.15-7.6-2.83-9.79-8.91s-1.34-11.93,1.87-13.08,7.38,2.61,9.61,8.42a4.9,4.9,0,0,0,.33,9.78A4,4,0,0,0,282.8,302.56Z"/><path class="cls-1" d="M329,314c5-2,24,0,24,0"/><path d="M353,312c1.14,3.43-5.19,3.66-6.78,5.71-2.53,2.25-6.76,2.2-9.62.66a14.11,14.11,0,0,1-1.37-1.15,14.5,14.5,0,0,0-3.05-1.53c-1.48-.59-4-1.66-3.18-3.69-.5,2,1.84,2.63,3.37,3.19a13.73,13.73,0,0,1,3.3,1.41,14.58,14.58,0,0,0,1.35,1.06c2.92,1.46,7,1.27,9.37-1.1,1.8-1.48,7.28-1.5,6.61-4.56Z"/><path class="cls-23" d="M310.14,277.24a11.77,11.77,0,0,1,3.93-.51,6.5,6.5,0,0,0-3.55,1.21A4.82,4.82,0,0,1,310.14,277.24Z"/><path class="cls-23" d="M315.83,276.92a13,13,0,0,0-1.75-.19h.18A6.31,6.31,0,0,1,315.83,276.92Z"/><path class="cls-10" d="M348,339c-1.62,1.75-5.71,5-10,5a10.12,10.12,0,0,1-10-7.19h0C333.53,340.13,343.25,340.4,348,339Z"/><path class="cls-10" d="M375.92,340.43c-.05.26-.09.55-.14.87,0,0,0,.06,0,.09-.05.35-.1.73-.16,1.14,0,.22-.06.46-.09.7-.09.69-.19,1.45-.28,2.29q0,.44-.09.9l0,.3c0,.26-.05.51-.07.77s-.05.53-.07.8-.05.55-.07.84c0,.56-.08,1.15-.12,1.75C369.6,359.7,356,366,340,366a52.51,52.51,0,0,1-22.8-4.9c.41,6.81.52,14.3-.41,19.59-3.71-1.86-7.52-3.67-11.36-5.36.08-.72.15-1.43.21-2.14.05-.5.09-1,.13-1.49s.07-.87.1-1.3c.08-1,.14-1.91.19-2.84s.09-1.85.12-2.74c0-1.06.07-2.1.08-3.11,0-1.19,0-2.34,0-3.45V358c0-.44,0-.87,0-1.3s0-1,0-1.47,0-.85,0-1.26a.76.76,0,0,0,0-.15c0-.12,0-.23,0-.35q0-.66-.06-1.29v0c0-.65-.07-1.27-.11-1.88s-.08-1.19-.13-1.76c-.07-.84-.14-1.64-.22-2.39-.06-.55-.11-1.07-.17-1.57l0-.26,0-.26c0-.12,0-.24-.05-.36,0-.3-.07-.59-.11-.87a.36.36,0,0,0,0-.1c0-.16,0-.31-.06-.46s0-.09,0-.14,0-.17,0-.25,0-.24,0-.36-.07-.48-.11-.7a73.84,73.84,0,0,0,8.9,6.81l1.13.71c.37.24.75.47,1.13.69,7.7,4.59,16.1,7.45,24.41,7.45C353.36,356.5,366,349.65,375.92,340.43Z"/><path class="cls-5" d="M375.69,271h0c-.65-.74-1.31-1.46-2-2.17-.11-.12-.23-.24-.35-.35s-.35-.37-.53-.55a.36.36,0,0,0-.11-.1s0,0,0,0h0s0,0,0,0h0a1.88,1.88,0,0,0-.24-.25,19.12,19.12,0,0,1,2.23.22,13.86,13.86,0,0,1,9,6C383.34,273.42,381.5,271.68,375.69,271Z"/><path class="cls-10" d="M370.11,267.43l-2,0-1.19,0c-21.92-16.5-37-38.72-38.74-43.84l.07-.18.14.19a168,168,0,0,0,19.13,21.9c8.44,8,16.2,13.73,22.75,19.86.73.68,1.44,1.36,2.12,2.06a1.88,1.88,0,0,1,.24.25h0l-.08-.07-.16-.15,0,0c-.65,0-1.35-.05-2.08-.05Z"/><path class="cls-10" d="M374,342c6-12,10.58-32.65,7.63-45.95-2-9-4.59-15.06-13.3-25.27,1.48,0,2.81,0,4,.09.71.05,1.37.11,2,.17l.68,0c6.82,7.76,11.91,17.64,14,33,1.26,9.27.34,15-1,22l-1,2c-.78,1.2-2.12,1.81-3,3-.34.47-.64,1.54-1,2-.88,1.15-1,.89-2,2-.22.26-.77,1.74-1,2-.09.1-2.91,1.91-3,2"/><path class="cls-24" d="M372.66,267.78h0Z"/><path class="cls-24" d="M372.66,267.78h0s0,0,0,0a.36.36,0,0,1,.11.1c.18.18.36.36.53.55Z"/><path class="cls-10" d="M328.07,287.22C328,285,326,277,324,276c-.89-.45-10-6-19,3C309,278,320,272,328.07,287.22Z"/><path class="cls-10" d="M351.31,287.81c.07-2.22,2.07-10.22,4.07-11.22.89-.45,11.62-6.59,19,3C370.38,278.59,359.38,272.59,351.31,287.81Z"/><path class="cls-16" d="M305.43,375.33s1.61-11.15,1.09-16.24c-3.52-1.09-9.36-2.27-19.94-1.18S276,363,277,364,304.86,374.66,305.43,375.33Z"/><path d="M276.65,420.67c-.13.45-.26.91-.4,1.37-.4,1.38-.85,2.81-1.32,4.28l-.36-.08c-3.8-1-14.57-2.24-20.57-7.24.25-.51,2-4.85,2.28-5.36C260.47,416.45,267,418.88,276.65,420.67Z"/><path class="cls-16" d="M282.78,426.27a26.74,26.74,0,0,1-7.85.05c.47-1.47.92-2.9,1.32-4.28.14-.46.27-.92.4-1.37-9.63-1.79-16.18-4.22-20.37-7-.27.51-2,4.85-2.28,5.36-1.5-1.16-8-5-2-9-2.52-2.43-2-6.84-2-7,5,5,20.22,8.07,32,7a4.67,4.67,0,0,0,0,.52c.29,2.71.48,6.55.63,11.14C282.71,423.11,282.75,424.66,282.78,426.27Z"/><path class="cls-16" d="M317.62,400.82c.7-.4,1.38-.83,2-1.26-5.07,4-9.75,7.62-13.74,10.92-5.92,4.88-10.33,9-12.3,12.36,0-6.25.09-10.72.09-12.34a5,5,0,0,0-.38-2c9-1.48,17.64-3.87,24.27-7.7Z"/><path class="cls-16" d="M323.23,396.73a29.15,29.15,0,0,1-3.58,2.83Z"/><path class="cls-16" d="M293.58,428c4.56-.29,11.52-1,19.8-2-.07,1.52-.18,3.68-.3,6.28a172.79,172.79,0,0,1-19.51-.2C293.57,430.6,293.58,429.26,293.58,428Z"/><path class="cls-16" d="M426.47,417.39a131.91,131.91,0,0,1-18.27,8.16,154.89,154.89,0,0,1-54.32,9.24,103.69,103.69,0,0,1-27-3.85h0c-.89.12-1.76.23-2.62.32,0-.39,0-.76,0-1.12.11-2.59.19-4.58.22-5.81,22.42-3.44,50-9.21,67.51-17.33-18,21-38,23-38,23,25.38,0,54.28-14.13,62.65-20A87.93,87.93,0,0,1,426.47,417.39Z"/><path class="cls-16" d="M426.47,417.39a125.12,125.12,0,0,1-13.2,6.21c-.43-.46-6.63-7-16.27-16.6-9.92-9.92-13-24-13.93-41.53,1.39-.49,2.78-1,4.17-1.39,2.53,15.83,8.93,31.79,21.26,40.42,2.88,2,5.59,3.79,8.15,5.52A87.93,87.93,0,0,1,426.47,417.39Z"/><path class="cls-16" d="M314.56,525.86c.55,3.87,1.2,7.48,1.94,10.64C315.46,536,314.86,532,314.56,525.86Z"/><path class="cls-16" d="M475.56,475.5l-.12,0c-11.9,3-22-1.44-30.41-8.88a162,162,0,0,0-13.52-44,55.17,55.17,0,0,1,7,10.9c7.94,15.88,18.93,25.68,30.66,27.59C471.22,465.51,473.38,470.35,475.56,475.5Z"/><path d="M445,466.65c-11.45-9.69-20.22-23-28.13-34.8A38.59,38.59,0,0,1,411,434l0,0c-1-3-1.94-5.76-2.78-8.41,1.18-.43,2.35-.87,3.51-1.33.93-.36,1.86-.73,2.77-1.12.75-.3,1.49-.62,2.22-.94l.73-.32c.83-.36,1.65-.74,2.46-1.13s1.76-.83,2.63-1.27c1.34-.66,2.66-1.34,4-2.05a48.83,48.83,0,0,1,5,5.2,0,0,0,0,1,0,0A162,162,0,0,1,445,466.65Z"/><path d="M431.17,519.93l-.12.73-2.25-1.41c-2-39.19-11.24-65.81-17.82-85.29-.22-.65-.43-1.28-.65-1.91L414,431C418,441,435.33,493.86,431.17,519.93Z"/><path d="M254.5,548.5c-12.42-19.12-32.16-65.64-.68-130l1,.82C237,466,235,500,254.5,548.5Z"/><path class="cls-16" d="M460.26,669.8c-.3,7.08-1.59,12.72-4.76,13.7l-1.05.33c-24.56,7.7-43,18.63-61.19,26h0c-19.36,7.79-38.51,11.52-64.55,3h0c-13.53-4.42-28.92-12.14-47.18-24.31-21.89-14.59-33-22.9-37.27-29.93a12.65,12.65,0,0,1-1.91-8.9.06.06,0,0,1,0,0c0-.16,0-.31.08-.47s.09-.45.15-.68a5.9,5.9,0,0,1,.21-.8,1,1,0,0,1,.07-.25c.08-.3.18-.6.29-.9,0-.12.08-.24.13-.36.19-.55.42-1.11.68-1.68.11-.27.24-.54.37-.81s.17-.37.27-.56.28-.57.43-.87.38-.74.59-1.12.58-1,.89-1.59c.93-1.64,2-3.39,3.15-5.29l1.17-1.9,1.09-1.78c.19-.3.37-.61.56-.92.73-1.2,1.49-2.45,2.27-3.77.34-.58.69-1.17,1-1.78.69-1.19,1.39-2.42,2.1-3.71.28-.5.57-1,.85-1.54-2.87-11.45-6.87-22.2-6.22-29.35,1.76-19.34,5-20,2-41-.32-7.51-.38-14.63-.21-21.4,0-.57,0-1.14,0-1.7q.12-4,.34-7.82c0-.74.08-1.47.13-2.19l.15-2.26c.05-.74.11-1.49.17-2.22s.12-1.47.18-2.2c.11-1.22.22-2.43.35-3.62.27-2.8.59-5.51.94-8.16.08-.55.15-1.11.23-1.65C258,522,263,536,264,555s-5,24,2,50c3.35,10.89-9.43,26-14.26,37.06A19.76,19.76,0,0,0,250,648c-1,11,56,56,101,51,23.7-2.63,46.14-11.6,65.4-19l5.5,2.16c8.39,1.67,10.6-.66,10.6-.66l2.05-8.08c9.56-3.1,17.89-4.84,24.67-3.83A9.12,9.12,0,0,1,460.26,669.8Z"/><path class="cls-15" d="M399.81,583.08l-.16-.24C383.3,557.67,364,553,359,555c0,0-13-19-9.56-25.85l0-.06h0a6.05,6.05,0,0,1,.64-.24l.47-.14.51-.13.35-.07.6-.1a4,4,0,0,1,.5-.06l.56-.05.45,0h.53a30.31,30.31,0,0,1,8,1c.65-2.44,2.45-3.28,3.38-2.81a9.85,9.85,0,0,1,1.21.82c2.67,2,8.64,7.14,14,12.2,2.1,2,4.11,4,5.78,5.73.75.8,1.43,1.56,2,2.25a25.74,25.74,0,0,1,3.06,4.74,92.31,92.31,0,0,1,5.52,13.89c1.51,4.72,2.42,8.37,2.42,8.37C399.74,577.59,399.84,580.44,399.81,583.08Z"/><path class="cls-10" d="M399.81,583.08c-.16,20.65-7.74,28.08-14.64,29.9-2.5-.79-4.95-1.63-7.34-2.48-1.25-.45-2.49-.9-3.71-1.36l-1.84-.7c-3.32-1.28-6.49-2.58-9.44-3.88A159.82,159.82,0,0,1,347.46,597c-1.62-.93-3-1.77-4-2.49-7-5-13-20-13-25,0-2.85,2.92-3.43,5.44-3.39-1.39-4-2.44-7.87-2.44-10.61,0-4.24,2.52-6,5.48-6.32a28.47,28.47,0,0,1-1.48-7.68c0-4.4,4.53-5.47,9.28-5.21a16.35,16.35,0,0,1-.28-2.79c0-.17,0-.33,0-.49a2.91,2.91,0,0,1,0-.31,2,2,0,0,1,0-.26,1.42,1.42,0,0,1,0-.22,1.82,1.82,0,0,1,.07-.25c0-.11.07-.22.11-.33s.09-.22.14-.32.11-.2.17-.3.12-.19.18-.28a3.23,3.23,0,0,1,.38-.45l.06-.06c.05-.06.1-.1.15-.15a2.11,2.11,0,0,1,.23-.19,4.54,4.54,0,0,1,.5-.36l.21-.12c.18-.1.37-.2.57-.29l.06,0,0,.06C346,536,359,555,359,555c5-2,24.3,2.67,40.65,27.84Z"/><path class="cls-16" d="M500.16,601.67c-6.53,21.64-19.71,40.46-41.18,44.49a50.92,50.92,0,0,1-17.54.09q-3-.46-6.14-1.27l-1.8-.48-2.09-.58c-2.51-.69-4.75-1.27-6.74-1.76l-3.84-.95-2.56-.59c-1.64-.39-3-.72-4.2-1-3.83-1-5.61-1.84-7.24-4a34.5,34.5,0,0,1-3.06-5.27c-.61-1.17-1.28-2.52-2.08-4.07-.71-1.36-1.5-2.88-2.43-4.59l-.6-1.11c-1.45-.28-2.85-.52-4.19-.74-2.15-.37-4.16-.67-6-1-5.37-.82-9.44-1.49-12.16-3a7.09,7.09,0,0,1-3.16-3.27,10.11,10.11,0,0,1-.86-4.17l1.84.7c1.22.46,2.46.91,3.71,1.36,2.39.85,4.84,1.69,7.34,2.48,6.9-1.82,14.67-7.33,14.83-28,0,0,3,0,22,9,8.53,4,12.28-14.64,37-1,27.94,15.42,21.53-14.66,30.87-3.46.35.43.73.91,1.13,1.46C496.91,599.06,494,601,500.16,601.67Z"/><path class="cls-16" d="M258.72,618.85c-.28.52-.57,1-.85,1.54-.71,1.29-1.41,2.52-2.1,3.71-.35.61-.7,1.2-1,1.78-.78,1.32-1.54,2.57-2.27,3.77-.19.31-.37.62-.56.92l-1.09,1.78-1.17,1.9c-1.16,1.9-2.22,3.65-3.15,5.29-.31.54-.61,1.07-.89,1.59s-.41.76-.59,1.12-.3.58-.43.87-.19.38-.27.56-.26.54-.37.81c-.26.57-.49,1.13-.68,1.68,0,.12-.09.24-.13.36-.11.3-.21.6-.29.9a1,1,0,0,0-.07.25,5.9,5.9,0,0,0-.21.8c-.06.23-.11.45-.15.68s-.06.31-.08.47a.06.06,0,0,0,0,0,12.65,12.65,0,0,0,1.91,8.9l-.78.08-.61.07-.45.06-.57.08c-1.12.16-2.3.38-3.51.67-.42.1-.85.2-1.28.32l-.48.13-.48.14a2,2,0,0,0-.23.06l-.09,0-1.37.44c-.63.21-1.27.44-1.9.69s-1.1.45-1.66.69l-.78.35c-.55.26-1.1.52-1.65.8s-1.15.61-1.73.94a41.11,41.11,0,0,0-4.18,2.75,43.61,43.61,0,0,0-11,12.13,49.94,49.94,0,0,0-2.56,4.66c-.14.3-.29.6-.42.9s-.24.51-.35.77c-.4.89-.78,1.82-1.15,2.77-.2.52-.4,1-.58,1.59a.36.36,0,0,0,0,.11c-.16.43-.3.87-.45,1.32-.21.62-.4,1.26-.59,1.91s-.33,1.13-.48,1.7-.32,1.22-.47,1.85c-.36,1.51-.68,3.08-1,4.7-.07.38-.13.77-.19,1.16-.14.85-.27,1.72-.39,2.6-.08.65-.16,1.3-.24,2,0,.22,0,.43-.07.65-.07.71-.14,1.44-.2,2.17,0,.44-.07.87-.1,1.31s-.06.87-.08,1.32,0,.89-.07,1.35,0,.81,0,1.23a142.83,142.83,0,0,0,.6,18.32c-3.77-3.15-11.92-14.53-11.15-53.86-8-37,3-28,8-100,.17-2.38.33-4.74.51-7.08,5.29-8.59,15.8-15.54,36.87-86a119.21,119.21,0,0,0,7.35,41.45h0A105.87,105.87,0,0,0,254.5,548.5c3,21-.24,21.66-2,41C251.85,596.65,255.85,607.4,258.72,618.85Z"/><path class="cls-18" d="M432.5,681.5s-2.21,2.33-10.6.66L416.4,680l-82.9-32.5s10-3,17,2Z"/><path class="cls-25" d="M328.68,712.81c-14,.46-26.7.74-36.56.79-2.79,0-5.36,0-7.66,0-.64,1-1.33,2.12-2.08,3.29s-1.48,2.31-2.29,3.55c-.33.51-.66,1-1,1.55-.7,1.1-1.44,2.23-2.2,3.4l-2,3.12c-2.47,3.8-5.12,7.88-7.78,12.07l-1.14,1.79c-.76,1.2-1.52,2.4-2.27,3.61-.62,1-1.23,2-1.84,3-4.63,7.49-9,15-12.42,21.6q-.57.19-1.17.36c-15.15,4.37-39.84,0-43.73-23.39q-1.25-7.47-1.85-14.14a147.21,147.21,0,0,1-.67-15.24,1.35,1.35,0,0,1,.28,0c4,.93,14.87.29,25.61-3.15a55.72,55.72,0,0,0,12.27-5.5c6.33-3.9,11.35-9.26,13-16.44a23,23,0,0,0,.55-5.2,28.08,28.08,0,0,0-.19-3c-6.53-8.54-12.75-17-19.07-24.23l1.37-.44.09,0a2,2,0,0,1,.23-.06l.48-.14.48-.13c.43-.12.86-.22,1.28-.32,1.21-.29,2.39-.51,3.51-.67l.57-.08.45-.06.61-.07.78-.08c4.23,7,15.38,15.34,37.27,29.93C299.76,700.67,315.15,708.39,328.68,712.81Z"/><path class="cls-25" d="M455,703c-4.09,2.15-7.75.76-11.89,2.71h0c-2.4.28-5,.56-7.71.84l-2.54.25-6.08.55q-3,.27-6.17.52-3.9.32-8,.62l-4.68.34c-4.73.33-9.63.65-14.63,1,18.22-7.34,36.63-18.27,61.19-26l.05.17C455.14,688.6,454.91,698.4,455,703Z"/><path class="cls-19" d="M340.64,733.27l-.34,0h.34Z"/><path class="cls-19" d="M377.47,728.31h0l-.71.15Z"/><path class="cls-16" d="M416.4,680c-3.81,1.47-7.75,3-11.8,4.52-17.57-7.46-47.45-21.11-58.41-32Z"/><path class="cls-18" d="M362.84,604.56,361.07,611l-.47-.58a24.71,24.71,0,0,1-15-6.71l1.86-6.72A159.82,159.82,0,0,0,362.84,604.56Z"/><path class="cls-19" d="M274,1177c0,.06,1.11-.21,1.09-.16a89.15,89.15,0,0,0-9.4.62c10.81-61.47,10.75-194.25-.19-245-8.19-38-14.73-102.14-16.7-139.37,3.14-3.82,6.62-8.63,10.19-14,.76,56.13,12.26,134.47,15,152.83a87.56,87.56,0,0,0,14,35S292.15,1115.68,274,1177Z"/><path class="cls-19" d="M340.64,733.27l-.34,0h.34Z"/><path class="cls-19" d="M377.47,728.31h0l-.71.15Z"/><path class="cls-26" d="M293,738c-18,8.54-28,31.44-30.51,56.54s5.19,125.78,13.35,146.22,46.16.76,52.16-22.68S345,762,335,748C325.44,734.62,312,729,293,738Z"/><path class="cls-26" d="M386,740c-17.66,14.49,23,165,36,183s43,36,52,23-15.25-192.72-23-209C441,716,425,708,386,740Z"/><path class="cls-27" d="M347,1215c-5,4-11,0-39-11s-42-6-47-8-2-9,.18-17.88h0c1.51-.25,3-.47,4.5-.65,36.56-4.33,62.09,13.16,84.31,22.54C349,1205,349.82,1212.75,347,1215Z"/><path class="cls-27" d="M526,1174c-34,0-50,8-71,26-3.4,2.91-9-7-5.31-18.31l.41-.48c18.36-11.53,43.68-25.51,76.74-24.09C528.25,1162.74,530.5,1174,526,1174Z"/><path class="cls-11" d="M347.14,1233.62c-.11.94-.24,2-.42,3.12l-3.73,1.6-.87.36-2.34,1-.62.25-.64.26-1.16.47-.3.12-2.34.92-3.56,1.37-1.27.47-3.2,1.17c.77-5.42-1.59-11.35-7.69-15.7a62.52,62.52,0,0,0-20-10c-.95-.27-1.95-.52-3-.76a40.53,40.53,0,0,0-15.43-8.85q3,.15,5.93.49c.64.07,1.27.14,1.9.23a108.42,108.42,0,0,1,14.89,3.05c.79.22,1.58.44,2.37.68a173.46,173.46,0,0,1,27.74,11.25l2.87,1.44c2.37,1.21,4.61,2.37,6.69,3.45,1.44.75,2.81,1.46,4.1,2.11Z"/><path class="cls-18" d="M346.72,1236.74a76.54,76.54,0,0,1-2.22,9.76c-9,5-115,44-124,21-5.13-13.11-4-21.76.4-28.44a5.78,5.78,0,0,1-.07.81C219.67,1247.73,226,1257,230,1260c8.41,6.31,60.09.26,83-7,5-1.58,9.29-3.29,10-4,1.32-1.32,3.32-1.63,3.69-4.3l3.2-1.17,1.27-.47,3.56-1.37,2.34-.92.3-.12,1.16-.47.64-.26.62-.25,2.34-1,.87-.36Z"/><path class="cls-11" d="M279,1215.33c-14.71-2.26-19.53-.76-26.47-.56q2-1.56,3.95-3.27v0c1.26-.3,2.51-.56,3.75-.79h0A53.64,53.64,0,0,1,279,1215.33Z"/><path class="cls-18" d="M296,1218.24c-4.36-1-9.27-1.57-13-2.24-1.4-.25-2.73-.47-4-.67a53.64,53.64,0,0,0-18.75-4.64,87.09,87.09,0,0,1,20.32-1.3A40.53,40.53,0,0,1,296,1218.24Z"/><path class="cls-6" d="M571.8,1225c-14.84,13-25.73,13-44.8,13-6,0-13.86-1.7-21.47-4.47,2.89-.93,5-2.45,6.08-4.74,9.92-21.51,30.12-22.88,43.58-23.65h0C563.54,1210,570.16,1215.53,571.8,1225Z"/><path class="cls-6" d="M507.51,1195.82l-1.4.77-.7.42-.16.09c-.48.29-.95.57-1.41.87s-1,.61-1.44.93l-.67.45c-.48.33-1,.67-1.41,1s-1.05.77-1.55,1.17l-.68.53-1.18,1-1.12,1a6.19,6.19,0,0,1-1.19.82,5,5,0,0,1-.77.31,4.27,4.27,0,0,1-1.15.17h0l-.33,0h0l-.39-.07h0a.86.86,0,0,1-.23-.06,1.4,1.4,0,0,1-.34-.13,1.66,1.66,0,0,1-.27-.13,1.85,1.85,0,0,1-.33-.21.69.69,0,0,1-.13-.11,3.45,3.45,0,0,1-.28-.26,4.59,4.59,0,0,1-.33-.44,2.5,2.5,0,0,1-.25-.55s0,0,0-.07v0a1.18,1.18,0,0,1,0-.2.57.57,0,0,1,0-.18,3.35,3.35,0,0,1,0-.55c0-.09,0-.18.05-.28a2.09,2.09,0,0,1,.18-.57A73.33,73.33,0,0,1,507.51,1195.82Z"/><path class="cls-4" d="M555.19,1205.14c-13.46.77-33.66,2.14-43.58,23.65-1.05,2.29-3.19,3.81-6.08,4.74-17.8-6.46-34.14-18.72-21.53-28.53a33.57,33.57,0,0,1,5.85-3.59,2.09,2.09,0,0,0-.18.57c0,.1,0,.19-.05.28a3.35,3.35,0,0,0,0,.55.57.57,0,0,0,0,.18,1.18,1.18,0,0,0,0,.2v0s0,0,0,.07a2.5,2.5,0,0,0,.25.55,2.41,2.41,0,0,0,.33.44,1.69,1.69,0,0,0,.28.26.69.69,0,0,0,.13.11,1.85,1.85,0,0,0,.33.21,1.66,1.66,0,0,0,.27.13,1.4,1.4,0,0,0,.34.13.86.86,0,0,0,.23.06h0a1.68,1.68,0,0,0,.39.07h0l.33,0h0a4.27,4.27,0,0,0,1.15-.17,5,5,0,0,0,.77-.31,6.19,6.19,0,0,0,1.19-.82l1.12-1,1.18-1,.68-.53c.5-.39,1-.78,1.55-1.17s.93-.67,1.41-1l.67-.45q.71-.48,1.44-.93c.46-.3.93-.58,1.41-.87l.16-.09.7-.42,1.4-.77h0a163.06,163.06,0,0,1,26.09-2.84c.45.35.89.67,1.33,1-13.1,1.06-25.38,6.95-31.78,14.48-2.75,3.23,1.56,6.89,5.3,3.58,7.55-6.67,19.26-13.52,32.53-14.52C545.89,1200.16,550.78,1202.55,555.19,1205.14Z"/><path class="cls-28" d="M499.5,447.5c-9.69,11.08-20.29,15.23-30.34,13.59-11.73-1.91-22.72-11.71-30.66-27.59a55.17,55.17,0,0,0-7-10.9,0,0,0,0,0,0,0,48.83,48.83,0,0,0-5-5.2c-5.24-4.68-11.13-8.1-18-12.89-12.33-8.63-18.73-24.59-21.26-40.42-.41-2.55-.72-5.11-.94-7.62-.07-.78-.13-1.57-.17-2.34-.1-1.53-.16-3-.2-4.51-.05-2.57,0-5.06.11-7.44,0-.41,0-.81.07-1.21,0-.77.1-1.53.17-2.27s.14-1.47.22-2.19c.47-4,1.11-7.43,1.73-10.64h0c1.34-7,2.52-13.08,1.26-22.35-2.09-15.36-7-24.74-13.81-32.5,5.81.68,7.65,2.42,7.9,2.68l-.14-.22a13.88,13.88,0,0,0-8.83-5.75,19.12,19.12,0,0,0-2.23-.22c-.68-.7-1.39-1.38-2.12-2.06-6.55-6.13-14.31-11.86-22.75-19.86a168,168,0,0,1-19.13-21.9l-.14-.19h0q-.56-.76-1.11-1.56c-.79-1.13-1.59-2.3-2.39-3.5C353,251,366.93,247.73,384,273.09c6.84,10.14,12.69,20.9,12,40.91-2,58,4,64,36,96C452,430,455,469,499.5,447.5Z"/><g class="cls-29"><path class="cls-30" d="M433.5,644.5l-2.09-.58-1.68,6-1.78-.72a5,5,0,0,1-1.83-1.25,5.17,5.17,0,0,1-1.17-2,8.06,8.06,0,0,1-.36-2.71c0-.33,0-.68.08-1l-3.84-.95a11.54,11.54,0,0,0,.6,5.69,9.41,9.41,0,0,0,5.64,5.35l5.54,2.23,2.69-9.5Z"/><path class="cls-30" d="M414.07,639.59A6.68,6.68,0,0,1,413,641a4.13,4.13,0,0,1-1.73,1.1,2.91,2.91,0,0,1-2-.13,3.43,3.43,0,0,1-1.59-1.3,5.8,5.8,0,0,1-.82-2.12,10.2,10.2,0,0,1-.09-2.74c0-.06,0-.12,0-.18a34.5,34.5,0,0,1-3.06-5.27l-.24.79a18.17,18.17,0,0,0-.72,4.71,12.41,12.41,0,0,0,.59,4.09,8.88,8.88,0,0,0,1.88,3.24,8.3,8.3,0,0,0,3.09,2.11,7.32,7.32,0,0,0,3.57.57,6.59,6.59,0,0,0,3.14-1.22,9.61,9.61,0,0,0,2.53-2.83c.23-.38.45-.78.66-1.21C416.63,640.23,415.25,639.9,414.07,639.59Z"/><path class="cls-30" d="M399.26,621.71,396.13,633l-.1,0-1.56-13c-2.15-.37-4.16-.67-6-1l-4.53,16,3.24,1.31,4.17-14.87.09,0,2,17.35,4.27,1.71,4-14.12C401,624.94,400.19,623.42,399.26,621.71Z"/><path class="cls-30" d="M379.7,633.18,376.86,632l3.88-6.6,2.49,1Z"/><path class="cls-30" d="M373.11,627.17l3.19-11.29a7.09,7.09,0,0,1-3.16-3.27l-3.71,13.08L365.29,624l-.85,3,12,4.81.85-3Z"/></g><g class="cls-29"><path class="cls-30" d="M454.25,564.27l-1,3.63c1.57-.43,3.11-.8,4.65-1.07l.13-.45Zm-9.57,5.5a4.21,4.21,0,0,0-1.9,1.09c1.43-.36,2.78-.74,4.08-1.12A4.84,4.84,0,0,0,444.68,569.77Z"/><path class="cls-30" d="M442.65,557.74l-2.33,3.53-5.9-3.32.09-4.8-4-2.24-.1,14.48a29.4,29.4,0,0,1,3.49,1.24l.22-5.8,4.94,2.78-2.62,4.2a37.18,37.18,0,0,1,3.31,1.91l6.68-9.84Z"/><path class="cls-30" d="M425.38,548l-3.92,14-.1-.06L419,544.4,414.79,542l-5.64,19.69,3.3,1.86,4-14,.1,0,2,15.2a24.45,24.45,0,0,1,6.15-.43l4.14-14.47Z"/><path class="cls-30" d="M407,537.66l-5.65,19.7,3.81,2.14,5.64-19.69Z"/><path class="cls-30" d="M401.12,537.16a11.76,11.76,0,0,0-2-3.62,10.86,10.86,0,0,0-3.21-2.72,8.42,8.42,0,0,0-3.68-1.23,5.39,5.39,0,0,0-2.81.61l1.54,3.49a3.81,3.81,0,0,1,1.7-.47,3.9,3.9,0,0,1,2.06.58,5.43,5.43,0,0,1,1.89,1.73,6.83,6.83,0,0,1,1,2.35,9.71,9.71,0,0,1,.2,2.78,13.91,13.91,0,0,1-.51,3,12.43,12.43,0,0,1-1.1,2.66,5.87,5.87,0,0,1-1.51,1.81,3.5,3.5,0,0,1-1.87.74,3.71,3.71,0,0,1-2.16-.55,6.31,6.31,0,0,1-2.89-3.54l-1.3.51c.75.8,1.43,1.56,2,2.25a25.74,25.74,0,0,1,3.06,4.74,7.36,7.36,0,0,0,2.06.43,6,6,0,0,0,3.22-.67,7.46,7.46,0,0,0,2.61-2.34,12.45,12.45,0,0,0,1.78-3.83,15,15,0,0,0,.6-4.47A14.06,14.06,0,0,0,401.12,537.16Z"/></g><path class="cls-31" d="M441.44,646.25,440,651.89l-1.36,5.37-.11,0c-49.2-11.46-71-38.27-77.47-46.24l1.77-6.44c3,1.3,6.12,2.6,9.44,3.88.22,10.06,9.35,8.9,26.38,12.16,12.29,22.45,3.77,15.16,34.84,23.9A67.88,67.88,0,0,0,441.44,646.25Z"/><path class="cls-16" d="M294.72,505.94c-.63.28-7.84,3.87-10.72-.94-3-5-6-51-6-80l4.73-1.05c0,.76,0,1.53,0,2.32.38,16.67.34,40.38,1.33,58,.49,8.75,1.24,16,2.41,20.19a2.28,2.28,0,0,0,.55.42l0,0C288.62,505.86,292.29,507,294.72,505.94Z"/><path class="cls-16" d="M313.08,432.19c-.05,1-.1,2.12-.16,3.27,0,.54-.05,1.1-.08,1.66a165.94,165.94,0,0,1-19.28-1.47c0-1.25,0-2.47,0-3.66A172.79,172.79,0,0,0,313.08,432.19Z"/><path class="cls-16" d="M412.7,435.05c-34.46,10.37-71.42,6.56-88.83,2.68.13-3.22.25-4.07.35-6.47.86-.09,1.73-.2,2.62-.32h0c23.65,6.95,54.9,4.18,81.35-5.39,1.08,3.43,2.33,7.1,3.67,11.05C412.14,437.4,412.42,434.22,412.7,435.05Z"/><path class="cls-16" d="M324.5,532.5s-5,10-9.5,5.5c-6-6-8-75-7-102l5-1.35c0,.27,0,.54,0,.81,0,.54-.05,1.1-.08,1.66-.58,12.74-1.34,30.92-1.34,38.38,0,8.66.38,23.43,1.62,37.46.39,4.45.87,8.82,1.44,12.9.55,3.87,1.2,7.48,1.94,10.64.36,1.53,1.75,1.54,3.27.8C321.73,536.35,323.94,534.19,324.5,532.5Z"/><path class="cls-13" d="M322.85,502.7l1.65,29.8c-.63-6-1.06-12.58-1.34-19.52C323,509.62,322.92,506.18,322.85,502.7Z"/></g><g id="Lines"><path d="M285.7,266.79a90.88,90.88,0,0,1-9.2,9.71,90.89,90.89,0,0,0,8.4-10.31l.8.6Z"/><path d="M297.57,237.5c-5.32,2.14-10.75,3.91-16.07,6,5.19-2.4,10.52-4.49,15.67-6.92l.4.92Z"/><path d="M373.66,269.37c-13.19-11.8-27.38-22.71-38.66-36.48a169.19,169.19,0,0,1-10.67-14.2l.78.06a79.4,79.4,0,0,1-27.54,18.75l.29-.35c-2.37,10.43-5.49,21.06-12.16,29.64l.1-.37a46.19,46.19,0,0,1-.65,14.51,44.13,44.13,0,0,1-1.49,5.72c-2.46-4.59-11.64-11-15.45-4.86-1.76,3.3-1.33,7.28-.9,10.93a38.77,38.77,0,0,0,1.67,7.39c2.61,7.38,9.78,11.94,17.25,13.46,3.9,10.3,10.84,19.23,19,26.59,11.89,10.66,28.34,18.56,44.5,14.43,15.87-4.08,29-15.68,38.12-29,.64-3.58,1.9-10.22,1.72-14.93-.39-15.14-5.31-30.62-16.19-41.49l.72-.7c9.2,9.19,14.26,21.71,15.86,34.48,1.26,7.64.4,15.5-1.19,23-8.52,13.54-22.5,25.92-38.68,30.13-10.92,2.91-22.61.21-32.29-5.23-14.39-8.14-26.49-21.06-32.37-36.67l.37.32c-9.28-1.59-17.49-8.15-19.12-17.72-1.13-5.58-3-15.61,3.65-18.39,5.42-1.51,10.8,2.53,13.63,6.85l-.89.11a46.45,46.45,0,0,0,1.77-18.78l0-.21.12-.16c6.6-8.49,9.62-18.92,12-29.26l.06-.25.23-.1a78.29,78.29,0,0,0,27.65-19c9.83,15,22.44,27.88,36.12,39.4,4.48,3.84,9.05,7.59,13.4,11.62l-.68.74Z"/><path d="M321.47,284.49c-1.45,7.87-12.93,8.45-14.33.19a8.09,8.09,0,0,1,1.44-5.88,9.49,9.49,0,0,1,5.68-2.71c4.5-.37,7.8,4.18,7.21,8.4Zm-1-.14c.56-3.59-2.94-6.74-6.31-7a5.05,5.05,0,0,0-3.36,1,17.16,17.16,0,0,0-2.17,2.72,6,6,0,0,0,.93,6.61c3.22,4,10.26,1.54,10.91-3.36Z"/><path d="M367.7,290.4a7.59,7.59,0,0,1-9.56-5.82,7.89,7.89,0,0,1,7.46-8.49c1.24-.26,3.32,1,4.46,2,4.56,3.77,3.09,10.33-2.36,12.29Zm-.3-1c4.23-1.35,5.1-7.66,2-10.57-1-1.06-2.55-1.24-3.89-1.49a5.45,5.45,0,0,0-4.83,2c-4.43,4.87.8,11.83,6.74,10.06Z"/><g class="cls-32"><path d="M271.36,305c.11,42.78-33.84,59.42-36.34,107.63a160.19,160.19,0,0,0,0,16.4h-1v0a111.79,111.79,0,0,1,1.31-33A109.45,109.45,0,0,1,247,365.22c7.83-14.44,17.37-28,21.19-44.07a80.2,80.2,0,0,0,2.2-16.13l1,0Z"/></g><path d="M369.92,265.79c-4-3.69-8.32-7.06-12.59-10.49a154.15,154.15,0,0,1-23.42-23.18,163.69,163.69,0,0,1-9.62-13.4l.86.07a79.56,79.56,0,0,1-27.55,18.78l.33-.4a128.21,128.21,0,0,1-4.41,15.5,55.85,55.85,0,0,1-7.74,14.18l.12-.44A47.91,47.91,0,0,1,283.69,287c-2.28-3.94-6.41-7.44-11.11-7.66a4.9,4.9,0,0,0-3.59,1.39l-.95.8a111.31,111.31,0,0,1,.13-28.37c1.84-13.46,6.29-27,14.86-37.8,8.77-11,22.65-17.14,36.59-13.26l-.38.07a41.93,41.93,0,0,1,10.15-5c10.79-3.66,22.68-3.16,33.59-.22,22.14,5.81,40.53,22.76,49.55,43.63,4.73,10.31,6.71,21.62,8.25,32.77a359.64,359.64,0,0,1,3.64,44.82c.21,9.18.75,18.72,4.25,27.3a91.07,91.07,0,0,0,4.85,10l2.81,4.81a38.74,38.74,0,0,0,7.05,8.38c5.45,4.92,12.33,8.26,17.87,13.61,11.3,10.86,12.35,27.81,12.26,42.55-.5,12.72-1.67,22.57,14.77,22.59,4.3,0,8.69-.45,13-.73a54.92,54.92,0,0,1-9.63,9.21c-18.42,13.6-37.81,3.87-49-13.5-4.24-6.25-6.79-13.47-11.77-19.18l-.19-.51a.84.84,0,0,0,.22.54.83.83,0,0,0,.58.25l-.62-.3c-15.11-17.24-29.3-14.81-39.51-40.51-6.95-18-7.88-38.11-3.82-56.87l0-.22.15-.15h0l-.2.37a69.46,69.46,0,0,0,1.82-16.25,74.47,74.47,0,0,0-2.5-16.17c-2.63-10.72-8.85-20.1-16.94-27.51Zm.7-.72a65.86,65.86,0,0,1,10.79,12.64c7.08,11.35,10.37,26.8,8.87,40.07-.34,2.84-.87,5.63-1.38,8.41l-.16.16h0l.19-.37a116.82,116.82,0,0,0-2,14.11c-1,18.41,1.89,38.91,12.66,54.3a40.53,40.53,0,0,0,10,9.82c7.84,5.46,16.44,10.3,22.59,17.85l-.62-.3a.82.82,0,0,1,.59.26.76.76,0,0,1,.23.55l-.19-.51c4.41,5.06,7,11.29,10.36,17,4.34,7.09,10,13.72,17.24,17.8,14.31,8.33,29.14,1.88,39.18-9.85,0,0,.67,1.3.62,1.28-15.59,1.37-29.28,2.26-27.79-18,.43-16.06.63-34.89-11.66-46.92-5.27-5.11-12.14-8.44-17.84-13.54a40.66,40.66,0,0,1-7.38-8.74L432,356.23c-10.35-18-8.64-29.66-9.54-49.29a348,348,0,0,0-5-44.5c-5.84-36.31-39-68.78-76.9-66.45a42.69,42.69,0,0,0-20.83,6.89l-.18.13-.2-.06c-19.32-5.27-34.14,8.34-41.92,24.82-7.71,16.21-9.73,34.63-8.29,52.41,0,0-1.13-.37-1.07-.39,5.08-4.59,12.91.69,15.92,5.38l-1.11.13a46.36,46.36,0,0,0,1.77-19c6.68-8.52,9.74-19,12.13-29.41l.07-.29.26-.11A78.26,78.26,0,0,0,324.35,218l.46-.49.4.57a170.12,170.12,0,0,0,21,25c7.86,7.62,16.36,14.5,24.4,22Z"/><path class="cls-23" d="M373.7,268.82q-1.65-1.72-3.43-3.39"/><path class="cls-23" d="M383.59,273.68c-.28-.29-2.5-2.38-9.89-2.86-4.68-.31-11.44,0-21.08,1.89a10,10,0,0,1,1-4,152.81,152.81,0,0,1,16.65-1.28,28.32,28.32,0,0,1,4.35.28A13.86,13.86,0,0,1,383.59,273.68Z"/><path d="M351.5,287.22c2.52-5.62,7.47-10.93,14-11.49l.06,2c-6.11-.07-11,4.47-14,9.49Z"/><path class="cls-33" d="M365.5,276.73c5.43-.22,10.43,3.22,12.53,9"/><path class="cls-23" d="M372,283.32a6.75,6.75,0,0,1-4.48,6.6,7.11,7.11,0,0,1-9-5.5,7,7,0,0,1,5.15-7.5,6.31,6.31,0,0,1,1.57-.2h.19A7,7,0,0,1,372,283.32Z"/><path class="cls-23" d="M366.22,286.09a3.16,3.16,0,0,1-4-2.45,3,3,0,1,1,6-.48A3,3,0,0,1,366.22,286.09Z"/><path d="M328.07,287.22c-3-5-7.91-9.56-14-9.49l.06-2c6.49.56,11.43,5.87,14,11.49Z"/><path class="cls-33" d="M301.54,285.72c2.1-5.77,7.1-9.21,12.53-9"/><path d="M321,284.43c-1.28,7.8-12.55,8.47-13.88.25a7.18,7.18,0,0,1,6.91-8.06l-.11.11a.12.12,0,0,1,0-.07.12.12,0,0,1,.18,0l-.1,0a7.18,7.18,0,0,1,7,7.81Zm-.12,0c.71-4.34-3.29-7.8-6.76-7.61-5.17.39-8.21,6.71-4.57,10.9,3.24,4.09,10.53,1.76,11.33-3.29Z"/><path class="cls-23" d="M313.34,286.09a3.17,3.17,0,0,0,4-2.45,3,3,0,1,0-6-.48A3,3,0,0,0,313.34,286.09Z"/><path d="M329,312c-.51,2.8,3.58,3,5.4,3.93a8.17,8.17,0,0,1,2.38,1.58,9,9,0,0,0,8.44,0,8.17,8.17,0,0,1,2.38-1.58c1.83-1,5.9-1.13,5.4-3.93.6,1.32-.58,2.5-1.7,3-1.63.85-3.52,1.25-4.87,2.48a5.27,5.27,0,0,1-1.61,1.16c-2.94,1.19-6.9,1.17-9.25-1.16-1.67-1.88-7.6-2.1-6.57-5.52Z"/><path d="M315.74,324.06a60.89,60.89,0,0,0,34.62,7c1.72-.09,3.42-.39,5.14-.58-1.67.46-3.35.9-5.06,1.21a49.09,49.09,0,0,1-35.18-6.77.5.5,0,0,1,.48-.88Z"/><path d="M327.5,336.5a27.89,27.89,0,0,0,10.85,2.65,38.65,38.65,0,0,0,11.15-.65c-5.73,3.36-16.8,2-22-2Z"/><path d="M285.39,314.17a41.4,41.4,0,0,1-1-4.64l.3-.06a39.63,39.63,0,0,0,1.68,4.36l-.94.34Z"/><path class="cls-23" d="M305.43,375.33a147,147,0,0,0,.84-17.07,118,118,0,0,0-1.34-17.42h0"/><path class="cls-23" d="M374.78,368.53c-.2-3.32-.28-6.42-.28-9.27a119,119,0,0,1,1.42-18.83h0"/><path class="cls-23" d="M267.39,383c-12.69-23.92,21.37-27.69,38.88-24.73"/><path class="cls-23" d="M293.69,422.84h-.08"/><path d="M278.5,378.5c-10.33,2.57-34.44,18.12-26.15,30.67,5.38,7,16.08,9.21,24.39,11l-.18,1c-8.68-1.79-19.46-3.89-25.14-11.34-9-12.85,15.83-30.3,27.08-31.32Z"/><path d="M290.5,369.5c15.34,4.27,29.58,11.81,43.25,19.83l-.5.86A354.33,354.33,0,0,0,290.5,369.5Z"/><path d="M387.39,364.56a240.59,240.59,0,0,0-83.6,48.68,127.64,127.64,0,0,0-9.76,10l-.84-.56.15-.17,0,0c18.45-21.14,42.61-36.65,67.73-48.73a200.55,200.55,0,0,1,26-10.18l.3,1Z"/><path class="cls-23" d="M386.3,356.46a76.47,76.47,0,0,0-11.8,2.8"/><path d="M326.78,430.44c18.16-2.57,35.77-8,52.72-14.94a169.31,169.31,0,0,1-39,13.63c-4.5,1-9,1.74-13.61,2.31l-.14-1Z"/><path class="cls-23" d="M426.47,417.39a131.91,131.91,0,0,1-18.27,8.16"/><path class="cls-23" d="M295.42,504.68a1.24,1.24,0,0,1-.66,1.24c-2.84,1.25-7.42-.5-8.24-1.42-1.17-4.18-1.92-11.44-2.41-20.19a32.39,32.39,0,0,0,10.18,1.57C294.56,492.87,294.93,499.32,295.42,504.68Z"/><path class="cls-23" d="M324.5,532.5c-1,3-7.17,7.51-8,4A175.32,175.32,0,0,1,313.12,513a45,45,0,0,0,10,0C323.44,519.92,323.87,526.53,324.5,532.5Z"/><path class="cls-23" d="M254.5,548.5c-12.74-19.6-33.16-68,1.78-134.86"/><path d="M461.67,565.9c12.14-.88,26.27,12.17,28.83,23.6-2.78-11.13-16.91-23.74-28.79-22.6l0-1Z"/><path d="M450.5,578.5a67.44,67.44,0,0,0-8.95-7l.58-.82a68.21,68.21,0,0,1,8.37,7.82Z"/><path d="M406.92,569.08c5,2.34,9.94,5.21,13.58,9.42-3.87-4-8.9-6.48-14-8.5l.4-.92Z"/><path class="cls-23" d="M362.12,529.31c-.7,2.64-.05,7.17,4.54,14A63.25,63.25,0,0,0,377.55,551"/><path d="M347.27,536.21c1.48,8.12,4.86,15.79,8.23,23.29-3.7-7.42-7.4-15-9.21-23.13l1-.16Z"/><path d="M339.46,549a131.72,131.72,0,0,0,7,18.47,133.58,133.58,0,0,1-8-18.17l1-.3Z"/><path d="M336.41,565.94a151.94,151.94,0,0,0,6.09,15.56,152,152,0,0,1-7-15.22l.94-.34Z"/><path d="M366.33,543.66a39.54,39.54,0,0,1-5.83-7.16,40.21,40.21,0,0,0,6.49,6.42l-.66.74Z"/><polygon points="380.5 552.5 377.31 551.4 377.8 550.52 380.5 552.5 380.5 552.5"/><path d="M376.5,612.5a13.77,13.77,0,0,0,8.54,0l.26,1a14.15,14.15,0,0,1-8.8-1Z"/><path d="M403.45,621.76l-4.89-.67a.5.5,0,1,1,.19-1l4.8,1.13a.27.27,0,0,1-.1.52Z"/><path d="M372.46,608l12.86,4.53H385c14.78-4.57,14.74-25.55,14-37.88-.17-.37-2.61-9.16-2.67-9.22a84.76,84.76,0,0,1,10.57,3.68l-.44,0c11.6-6.81,22.22-7.11,33.66.28l2,1.3-.41-.08c6.65-1.52,13-4.34,19.95-4.7l-.46.38,5.81-22.9.21.54-27.72-17.37-.33-.21.13-.38c8.9-25.1,8.47-52.87,1-78.3a201.23,201.23,0,0,0-10.78-28.14,62.75,62.75,0,0,1,9.82,14.6c6.19,11.95,15.91,24,29.85,26.48l.27,0,.1.23c5,10.65,9.51,21.5,13.69,32.48,10.08,27.37,26.55,74.65,19,103-7.26,30.21-27.69,56.54-61.82,50.33-5.82-1-11.38-2.94-17.12-4.28-3.06-.79-10-2.22-12.84-3.38s-4.81-3.75-6.18-6.45c-2-3.91-4-7.85-6.1-11.71l.88-.48c2.95,5,5,10.6,8.44,15.31,1.76,2.2,4.7,2.88,7.5,3.62l8.56,2c5.7,1.32,11.29,3.24,17,4.22a51.52,51.52,0,0,0,17.34.2c24.12-4,37.81-27.71,43-49.73,5.46-21.22-1.78-48.12-7.52-68.93-6.15-22-16.11-46.11-24.4-65.51-9.4-1.57-17.3-7.86-23.06-15.18-6-7.16-8.86-16.38-14.89-23.48l.83-.53c11.15,24.22,17.32,51.2,14.25,77.89a121.69,121.69,0,0,1-6,26l-.2-.59,27.72,17.37.3.19-.09.35-5.81,22.9-.09.36a41.76,41.76,0,0,0-10.26,1.93c-3.33,1-6.67,2-10.07,2.82l-.2-.13-1.95-1.27a31.14,31.14,0,0,0-15.09-5.31c-6.35-.41-12.32,2.11-17.77,5.17a83.82,83.82,0,0,0-9.8-3.48l.62-.63,2.43,8.4c.89,13.22.67,34.34-14.69,39.08l-.15,0-.13,0-12.92-4.55.36-.94Z"/><path class="cls-23" d="M441.44,646.25,432.5,681.5l-82-32,12.34-44.94c3,1.3,6.12,2.6,9.44,3.88.22,10.06,9.35,8.9,26.38,12.16,12.29,22.45,3.77,15.16,34.84,23.9A67.88,67.88,0,0,0,441.44,646.25Z"/><path class="cls-23" d="M467.5,543.5l-5.81,22.9c-6.36.28-11.94,2.78-19.85,4.69-16.6-11.74-28.08-5.33-35.12-1.55a83.11,83.11,0,0,0-9.64-3.41c-2-6.34-5.14-14.62-8.58-18.63-1.92-2.24-4.77-5.1-7.81-8l11.52-42,.29-1,36.3,22.75,11,6.88Z"/><path class="cls-23" d="M333.5,647.5s10-3,17,2"/><path class="cls-23" d="M392.5,497.5l-.29,0"/><path class="cls-23" d="M385.17,613c-4.47-1.42-8.8-3-12.89-4.54-3.32-1.28-6.49-2.58-9.44-3.88A159.82,159.82,0,0,1,347.46,597c-1.62-.93-3-1.77-4-2.49-7-5-13-20-13-25,0-2.85,2.92-3.43,5.44-3.39-1.39-4-2.44-7.87-2.44-10.61,0-4.24,2.52-6,5.48-6.32a28.47,28.47,0,0,1-1.48-7.68c0-4.4,4.53-5.47,9.28-5.21a16.35,16.35,0,0,1-.28-2.79c0-6.45,9.75-5.75,15.62-4.19.65-2.44,2.45-3.28,3.38-2.81a9.85,9.85,0,0,1,1.21.82c2.67,2,8.64,7.14,14,12.2,3,2.88,5.89,5.74,7.81,8,3.44,4,6.55,12.29,8.58,18.63,1.51,4.72,2.42,8.37,2.42,8.37C401.6,601.75,393,610.93,385.17,613Z"/><path d="M252.68,410.55A92.94,92.94,0,0,0,235,429.43l-.51.26h.12l.11,0,.07,0a.42.42,0,0,0,.15-.12.65.65,0,0,0,.12-.67.38.38,0,0,0-.06-.12l-.06-.07.38.37c-15.71,22-22.49,48.93-27,75.25-3.59,21.09-5.6,42.52-7.27,63.83-1.05,14.51-2.15,29.63-4.13,44.06-.52,3.54-1.24,8.42-1.89,11.94-2,13.15-6.8,26.07-5.46,39.5a141.91,141.91,0,0,0,2.55,15.93l-.06,7c.26,13.26,1,37.05,10.9,46.46l-.64.76A19.57,19.57,0,0,1,198,728c-4.28-8.44-5.62-18.09-6.49-27.4-.59-6.42-.73-15-.61-21a135.4,135.4,0,0,1-2.6-15.94c-1.18-10.83,1.84-21.47,3.94-32,1-5.05,2-10.68,2.75-15.81,7.2-52.87,5-108,24-158.69a127.18,127.18,0,0,1,15-28.53l.06.82-.07-.09a.61.61,0,0,1-.07-.13.72.72,0,0,1,0-.24.63.63,0,0,1,.18-.43.62.62,0,0,1,.4-.2h.06l-.51.26a93.53,93.53,0,0,1,18.09-18.92l.62.78Z"/><path class="cls-23" d="M203.5,639.5c19-8,37-31,41-43"/><path class="cls-23" d="M294.29,485.88a32.39,32.39,0,0,1-10.18-1.57c-1.09-19.37-.93-46-1.45-62.67-.15-4.59-.34-8.43-.63-11.14-.73-6.95,11.67-7,11.67,0,0,1.62-.05,6.09-.09,12.34v.1c0,2.71,0,5.76,0,9.05C293.52,447.44,293.61,468.35,294.29,485.88Z"/><path class="cls-23" d="M324.5,423.5c0,1-.09,3.35-.23,6.64,0,.36,0,.73,0,1.12-.67,16-2.27,51.82-1.06,81.72a45,45,0,0,1-10,0c-1.24-14-1.62-28.8-1.62-37.46,0-8.49,1-30.86,1.58-43.31.25-5.21.42-8.69.42-8.69C313.5,416.5,324.5,416.5,324.5,423.5Z"/><path d="M455.65,684a258.23,258.23,0,0,0-31.38,12.33C414,701,404,706.14,393.51,710.42l.42-.6a1.24,1.24,0,0,1,0,.22.73.73,0,0,1-.63.44l.24-.05a124.1,124.1,0,0,1-15.76,5.29,80.14,80.14,0,0,1-33.09,1.68c-17.53-3-33.7-10.46-49.2-19.45-10.49-6.16-20.51-13-30.48-20-7.33-5.4-15.17-10.58-20.63-18.05l-.65-1-.55-1a11.72,11.72,0,0,1-.93-2.18c-2.6-7.84,3-15.09,6.74-21.49,3.19-5.17,6.38-10.31,9.33-15.6,0,0,0,.35,0,.35-1.58-5.72-3.43-11.36-4.92-17.17-1.07-4.34-2.09-9-1.51-13.49.58-7.4,2.41-14.71,3-22.08a88.45,88.45,0,0,0-1.07-17.62,295,295,0,0,1,4.32-65.29c3.69-21.56,11.54-42,18.1-62.79l.13-.42.44.07,6,1,.42.07v.41c.58,20.77.33,41.53,1.43,62.26.44,6.84.76,13.84,2.41,20.49l-.11-.2a9.1,9.1,0,0,0,7.45,1.37c.5-.1.63-.5.57-1-1.76-24.27-1.92-48.78-1.84-73.08a173.79,173.79,0,0,0,20.54.2c-1.52,29-2.67,58.1.57,87A151.42,151.42,0,0,0,317,536.42c.93,3,6.75-2.39,7-4.08-.91-7.25-1.31-17-1.57-25.1-.67-25.34.18-50.69,1.26-76l0-.42.43-.06,2.6-.32h.15l.07,0c26.59,7.29,55.3,3.61,81-5.38l.49-.18.16.5c5,15.23,10.44,30.42,14,46.1a271.41,271.41,0,0,1,6.65,47.72l.05,1-.82-.52-36.3-22.75.75-.29-.29,1-.09.32c-5.81,1-12,.91-17.32-2l.7-.32-8.79,31.82-.18.66-.6-.39c-.4-.26-.86-.61-1.2-.8-1.54-.24-2.45,1.66-2.74,3-5.65-1.51-17.64-3.19-15.2,6.28l.1.62-.62,0c-2.89-.1-6.92,0-8.38,2.86-1.05,3,.46,6.92,1.26,10-8.83.57-5,11-3.22,16.34l.24.67c-1.7,0-3.85-.06-5.08,1.23-1,1.16-.44,3-.18,4.45a49,49,0,0,0,3.41,9.45c2.21,4.45,4.76,9,8.68,12.1,1.46,1,3,1.94,4.56,2.93l-.1.35-14,50.51c-2.3-2.08,88.8,34.65,88,34,3.28.55,7.16,1.27,10.14-.51-.42,1.62,8.89-35.61,8.82-35l.11-.45a50.88,50.88,0,0,0,17.75,0h.07l.52-.09.07.52c.87,7.75,4.74,35.13-3.83,37.88Zm-.3-1c5.61-2.74,4.17-21.42,3.93-27.13-.21-3.23-.47-6.45-.8-9.67l.59.43H459a51.48,51.48,0,0,1-17.64.08l.56-.37c-.07.13-8.91,35.28-9,35.4a5.9,5.9,0,0,1-2.84,1.24,22.36,22.36,0,0,1-8.39-.38c-.49-.27-88.39-34.61-88.82-34.83l.12-.43,14-50.51.23.56c-1.44-.93-2.92-1.78-4.33-2.78-4.09-3.23-6.71-7.9-9-12.48a49.23,49.23,0,0,1-3.48-9.66c-1.35-4.86.62-7,5.53-6.89l-.48.67c-2-5.69-5.6-16.49,3.45-17.6l-.42.65a30.89,30.89,0,0,1-1.49-7.44c-.44-5.3,5.71-6.46,9.8-6.1l-.52.59c-2.48-10.18,9.47-9.28,16-7.55l-.61.35a4.8,4.8,0,0,1,1.95-2.89,2.15,2.15,0,0,1,2.37-.08c.27.17.78.54,1.05.71l-.78.27L375,495.37l.16-.59a23.05,23.05,0,0,0,8.52,2.72,36.91,36.91,0,0,0,8.44-.46l-.41.37.29-1,.18-.65.57.36,36.3,22.75-.77.45a270.14,270.14,0,0,0-6.62-47.55c-3.54-15.67-8.94-30.78-14-46l.65.32c-25.94,9.06-54.85,12.75-81.66,5.4l.14,0h.06l-2.64.32.45-.48c-1.08,25.3-1.93,50.62-1.26,75.93.21,8.5.76,17,1.51,25.45-1.06,2.59-4.4,5.75-7.35,5.59a2,2,0,0,1-1.59-1.58c-.28-1.2-.54-2.37-.77-3.56-5.81-33.32-4.36-67.32-2.68-100.94l.52.52a174.84,174.84,0,0,1-19.56-.2l.53-.5c0,20.72-.09,41.46,1.22,62.13l.62,10.34c.35,2.45-3,2.51-4.65,2.32a9.85,9.85,0,0,1-5.11-1.95l-.08-.07,0-.13c-1.7-6.8-2-13.75-2.45-20.69-1.09-20.74-.85-41.54-1.43-62.28l.43.48-6-1,.57-.35c-6.41,20.78-14.05,41.25-17.71,62.76-4,21.16-5,43.62-4.16,64.82,1.38,8.82,1.79,18,0,26.87-.86,5.8-2.08,11.66-1.91,17.53.83,8.82,4.07,17.24,5.89,25.94l.05.2-.09.16c-2.84,5.38-6,10.59-9.16,15.77-3.66,6.44-9.38,13.82-6.2,21.46a23,23,0,0,0,1.61,2.87c5.32,7.28,13.07,12.42,20.28,17.75,9.92,6.95,19.92,13.85,30.36,20,24.66,14.76,52.43,25,81.34,17.41a139.27,139.27,0,0,0,15.86-5.2.69.69,0,0,0-.66.64l.42-.6c20.78-8.61,40.64-19.76,62.34-26.16Z"/><polygon points="263.5 609.5 259.16 619.09 258.28 618.61 263.5 609.5 263.5 609.5"/><path d="M267.79,633.91c24.65,16.74,51.45,30.92,80.6,37.84l5.82,1.34L348.33,672c-29.44-6-56.6-20.26-80.54-38.1Z"/><path class="cls-23" d="M284.46,713.59c10.43.1,26.24-.19,44.22-.78"/><path class="cls-23" d="M393.26,709.8c26.66-1.63,50.44-3.67,62.24-5.88l.34-.07"/><path d="M455,683.93a171.38,171.38,0,0,1,1.18,21C469,780.33,481.23,855.88,489.6,932c.84,9.5,2.15,19.18,1.24,28.72a100.1,100.1,0,0,0-.27,10.67,8.27,8.27,0,0,0,1.32,4.75c2.73,3.36,3.49,7.88,4.26,12,3.36,18.85,6.4,37.72,9.54,56.58,5.56,33,10.67,66.07,18.32,98.64a111.86,111.86,0,0,0,4.08,13.66l-.92.38a110.48,110.48,0,0,1-4.36-13.73c-10.24-41.83-16.65-84.49-23.56-127-1.49-9.45-2.93-18.91-4.54-28.31-.73-4-1.32-8.19-3.9-11.47-1.88-2.64-1.54-6-1.59-9.08.09-3.46.35-7.31.61-10.77.39-8.32-.74-16.66-1.54-24.92-9.05-73.58-22.5-153.54-33.47-227a177.93,177.93,0,0,0-.82-21l1-.14Z"/><path d="M284.88,713.85c-12.21,19.28-25.7,39.74-36.18,59.08,0,0-1,0-1,0h0v-.1c7.36-15.87,17.44-30.25,26.82-45,3.17-4.85,6.4-9.66,9.52-14.54l.84.52Z"/><path d="M249.66,771c-13.34,4.26-29.88,2-39.43-9-4.82-5.47-6.49-12.7-7.32-19.75-2.81-20.66-3.41-43.17,7-62a43.29,43.29,0,0,1,34.31-22.23l.08,1A42.65,42.65,0,0,0,211.15,681c-10.07,18.51-9.27,40.69-6.7,61,.77,6.78,2.28,13.76,6.88,19,9.06,10.54,25.14,12.84,38,9l.32.94Z"/><path class="cls-23" d="M226.66,664.12c6.91,9.09,23.54,22.73,34.84,28.38"/><path class="cls-23" d="M211.5,679c5.24,6.38,16.69,15.66,24.77,19.87"/><path class="cls-23" d="M208.94,683.66c5.69,6.24,15.93,14.36,23.33,18.21"/><path class="cls-23" d="M222.48,666.87c6.55,8.78,22.5,22,33.87,28"/><path class="cls-23" d="M252.79,709.88c.87.75,9.09,1.83,10.66.91,3-1.74-.08-11.37-1-15.41-1.14-4.81-4.39-4.59-6.49.44S250.06,707.48,252.79,709.88Z"/><path class="cls-23" d="M228.79,716.88c.87.75,9.09,1.83,10.66.91,3-1.74-.08-11.37-1-15.41-1.14-4.81-4.39-4.59-6.49.44S226.06,714.48,228.79,716.88Z"/><path d="M421.5,964.5c-5.06-4.89-9.6-10.91-11.13-18a20,20,0,0,1-.17-7.2c.42-3.48,2.12-6.78.56-10.06-1.3-3.23-2.69-6.65-3.95-9.86C397.89,895.07,391,870,384.41,845q-12.5-47.87-22.4-96.36l.49.4h-7l.5-.5c.12,17.81-.2,35.59-.73,53.38s-1.29,35.57-2.4,53.34-2.35,35.61-4.87,53.19c-.2,1.63-.74,5-1.06,6.61s-1,4.78-1,6.45c0,2.17,1.44,3.9,2.55,5.73a12.33,12.33,0,0,1,1.9,6.6c0,4.58-1.67,8.88-3.45,13a63.18,63.18,0,0,1-6.46,11.7c3.46-8,8.74-15.74,8.87-24.68.12-3.44-1.89-6.08-3.63-8.87-1.27-2-1.13-4.71-.64-6.88.48-2.93,1.16-6.91,1.49-9.86,5.11-43.79,6-88.94,7.68-133.05.25-9,.61-18.11.73-27.16h7.9l.09.4c6.36,27.52,12.85,55,19.75,82.41,4.57,18.26,9.33,36.48,14.63,54.55,4,13.46,8.05,27.11,13.23,40.17l1.28,3.29a9.89,9.89,0,0,1,.58,1.79,13.31,13.31,0,0,1-.47,5.48c-3.49,11.16,2.93,20,9.51,28.41Z"/><path d="M415.06,955.68c-4.48,10.48-1.95,11.1,1.41,20.69,2.2,7.15,2.31,14.73,3,22.09,3.25,44.15,7.26,88.38,13.46,132.21a404.68,404.68,0,0,1,4.24,59l-1,0q-.31-14.76-1.63-29.47c-2.86-29.4-8.26-58.52-11-88-2.5-24.33-4.37-49.24-5.91-73.68-.7-9.78-.85-19.67-5.18-28.66a12.58,12.58,0,0,1-.81-7.56,35.57,35.57,0,0,1,2.45-7.09l.92.4Z"/><path d="M343.52,953.58a35.46,35.46,0,0,1,4.75,22.93c-.28,2.6-1.16,5.08-1.43,7.65-.59,10.32,1.63,20.65,2.93,30.87,9.83,61.81,13,124.89,5.69,187.16v0s-1,0-1,0a704,704,0,0,0,.77-124.81c-1.71-20.76-4.39-41.41-7.34-62-1-7.76-2.18-15.53-2.68-23.36a47,47,0,0,1,.07-8c.28-2.6,1.23-5.09,1.56-7.68a34.23,34.23,0,0,0-4.18-22.21l.86-.52Z"/><path d="M248.73,770.91c.07,17,1.56,34,3,50.89,3.52,38.09,7.52,76.23,14.87,113.79,1.55,8.15,2.75,17.08,3.6,25.31,3.5,33.76,4.56,68.12,4.39,102.06s-1.78,68.24-6.32,102l-2,12.63-1-.18c1-6.33,2.62-18.92,3.24-25.28,2.86-29.6,4-59.41,4.37-89.15.27-25.32,0-51.23-1.49-76.52-.76-12.62-1.83-25.55-3.58-38.08-.44-3.75-1.39-8.84-2.12-12.57a803.32,803.32,0,0,1-13.37-88.38c-2.44-25.45-4.79-50.9-4.52-76.52l1,0Z"/><path d="M427,1194.31a113.12,113.12,0,0,0,12.57-7.17c11.93-7.75,23.95-15.51,37.09-21.15,17.45-7.67,36.85-11.16,55.84-9l.42,0,0,.45c.48,5.56.94,11.19,2.57,16.53,1.86,5.33,3.75,10.76,4.42,16.39l.13.72-.72-.13c-31.08-6-59.64,4.2-80.45,27.92-6.11,6.39-15.37,8.35-23.86,9.12a218.58,218.58,0,0,0-7.71-32.34l-.17-.5-.08-.25a1.16,1.16,0,0,1-.09-.63Zm.92.38c.15-.1,0-.31.12-.14l.11.24.23.49a97.27,97.27,0,0,1,6.75,23.64,81.26,81.26,0,0,1,.83,8.53l-.53-.45c8-.9,16.8-2.87,22.56-8.89l2.48-2.65c20.46-22.41,49.4-31.69,79.09-25.45l-.59.58c-.67-2.73-1.35-5.45-2.18-8.12s-1.88-5.26-2.7-8c-1.66-5.5-2-11.24-2.13-16.92,0,0,.46.47.45.47-28.9-2.45-56,7.31-80.14,22.65-4.18,2.59-14,8.89-18.17,11.19a28.84,28.84,0,0,1-6.18,2.85Z"/><path class="cls-23" d="M251.43,1215.62c13.14,0,25.87,4.89,32.85,11.88,3,3-1,7-5,4-8-6-20.27-11.94-33.58-11.87h0"/><path class="cls-23" d="M280.59,1209.39a40.16,40.16,0,0,1,15.69,9.11c3,3-1,7-5,4-7.53-5.66-18.71-11.17-31-11.81h0"/><path d="M252.69,1213.29c-7.12,1.09-2.77-13-2.07-16.6,1-4.93,3.51-12.12,3.39-17.12l0-.45.41-.11c17.78-4.6,36.77-3.24,54.15,2.43,17.47,5.38,33.23,15,50.14,21.59l.4.15-.08.42c-1.95,10.67-3.95,21.78-4,32.63-8.61-3.4-16.45-8.22-24.82-12.08a162.16,162.16,0,0,0-24.89-9.74c-17-5.07-35.4-6.08-52.59-1.12Zm-.38-1.58c17.41-4.92,36.15-3.8,53.35,1.44a164.08,164.08,0,0,1,25,9.95c8.08,3.8,15.79,8.52,24,11.93l-.68.47c-.24-10.83,1.71-21.56,4-32.1l.32.57c-17.07-6.4-32.74-16-50.21-21.25a110,110,0,0,0-26.57-5.1,94.6,94.6,0,0,0-26.93,2.37l.37-.56c.31,3.09-.4,6-1,9l-1.9,8.65c-.34,2.31-3.92,15.42.18,14.67Z"/><path d="M347.79,1232.25a77.92,77.92,0,0,1-2.81,14.39l-.06.2-.18.1c-15.6,7.2-32,12.42-48.4,17.58-18.21,5.3-51.83,15.1-69.82,9.28-3.13-1-6.27-3.62-7.14-7l-1.07-3.07c-5.73-18.54,1.32-28.43,16.78-38.12,7.23-4.63,14.67-8.89,21.08-14.52l.66.74c-6.43,5.79-13.9,10.19-21,14.87-14.76,9.54-21.59,18.63-15.92,36.54l1.06,3c.88,3,3.26,4.87,6.18,5.92,17,5.44,51.06-4.54,68.75-9.28,16.33-4.89,32.79-9.9,48.39-16.84l-.24.3q1-3.48,1.73-7c.48-2.1.75-5,1-7.17l1,.1Z"/><path class="cls-23" d="M232.15,1228.42c13.48-.31,33.73-.58,45.35,20.08,7.86,14,56.95-6.4,69.22-11.76"/><path class="cls-23" d="M535,1193.92c-13.1,1.06-25.38,6.95-31.78,14.48-2.75,3.23,1.56,6.89,5.3,3.58,7.55-6.67,19.26-13.52,32.53-14.52"/><path class="cls-23" d="M504.3,1190.53a39.35,39.35,0,0,0-13.82,9.86c-2.74,3.23,1.56,6.9,5.31,3.59,8-7,20.58-14.3,34.77-14.64"/><path d="M529.8,1189.1c2.07,1.55,3.77,3.4,5.9,4.59s4.33,2.51,6.53,3.7c4.43,2.36,9,4.54,13.37,7.06l-.41-.11h.22l.2.11a51.08,51.08,0,0,1,9.12,6.42c7.61,6.56,9.69,16.35,7.8,25.93l-.53,2.75-.72,2.7a11.41,11.41,0,0,1-1.36,3.47c-13,19.74-105-5-125.45-13.08l-.2-.09-.07-.19-2-5.81,1-.28,2,5.73c18.79,5.79,110.25,30.5,123,12.59,1-1.48,1.31-3.84,1.83-5.52a46.62,46.62,0,0,0,1.16-8c1.29-18.66-16.38-25.09-29.52-32.57-2.19-1.25-4.34-2.58-6.52-3.87s-4-3.28-5.89-4.77l.6-.8Z"/><path class="cls-23" d="M448.28,1224.81c18.36,5.88,57.48,16.67,63.33,4,9.92-21.51,30.12-22.88,43.58-23.65h0"/><path class="cls-23" d="M295.9,273.68c.28-.29,2.5-2.38,9.89-2.86,4.68-.31,11.44,0,21.08,1.89a10,10,0,0,0-1-4,152.81,152.81,0,0,0-16.65-1.28,28.32,28.32,0,0,0-4.35.28A13.86,13.86,0,0,0,295.9,273.68Z"/></g></svg>